<svg width="83" height="74" viewBox="0 0 83 74" fill="none" xmlns="http://www.w3.org/2000/svg">
<path d="M72.6777 19.8105C61.8965 6.12996 43.3546 -2.92658 25.824 0.869454C16.9421 2.79377 9.4674 8.18642 4.90541 16.0617C1.42021 22.0814 0.00832176 29.2352 1.60562 35.9109C1.58877 41.4486 3.12539 47.736 9.57527 47.9585C12.1421 48.0475 14.7731 47.4157 17.2981 47.0536L26.1463 45.7671C31.0414 45.0551 36.6741 43.8604 41.2469 46.4023C48.9569 50.6831 49.3251 61.635 54.2289 68.2359C56.4128 71.181 59.4543 73.5497 63.2018 73.9306C67.1684 74.3271 70.8721 72.3805 73.6736 69.7105C80.0642 63.6294 82.5333 53.929 82.302 45.3498C82.0498 36.033 78.4143 27.0917 72.6777 19.8105Z" fill="#FEBF51"/>
<path d="M11.9412 13.7497C11.2656 13.6566 10.5921 13.5757 9.91376 13.507C9.55236 13.4706 9.47213 14.07 9.82746 14.1428C10.4619 14.2716 11.0964 14.3902 11.7356 14.4961C12.2278 14.5777 12.4287 13.8171 11.9412 13.7497Z" fill="#011C1A"/>
<path d="M19.9453 16.4575C18.8725 16.0469 17.7169 15.7806 16.6199 15.434C16.2119 15.3052 16.0481 15.9302 16.4445 16.0698C17.5328 16.4528 18.619 16.9356 19.7261 17.2524C20.246 17.4015 20.4314 16.6436 19.9453 16.4575Z" fill="#011C1A"/>
<path d="M26.5475 18.6743C25.7964 18.4539 25.0412 18.2516 24.2854 18.048C23.8465 17.93 23.6813 18.5719 24.1 18.7209C24.839 18.9838 25.5773 19.2475 26.3216 19.4942C26.8401 19.6655 27.0734 18.8287 26.5475 18.6743Z" fill="#011C1A"/>
<path d="M34.9143 22.0281C33.8422 21.3775 32.4553 21.066 31.2349 20.8354C30.7124 20.7363 30.4858 21.4982 31.0124 21.6425C32.2301 21.9769 33.352 22.523 34.5475 22.8979C35.0707 23.0611 35.3687 22.3032 34.9143 22.0281Z" fill="#011C1A"/>
<path d="M43.7928 25.2094C42.5178 24.5742 41.1619 24.1548 39.7568 23.9283C39.21 23.84 38.9767 24.5971 39.5242 24.7724C40.785 25.1756 42.0027 25.6658 43.2103 26.2066C43.8758 26.5039 44.4664 25.5451 43.7928 25.2094Z" fill="#011C1A"/>
<path d="M52.6289 29.0106C51.1995 28.2393 49.5914 27.6203 48.0447 27.1288C47.4702 26.9461 47.1041 27.8132 47.634 28.1024C49.0601 28.8805 50.6176 29.6127 52.165 30.1117C52.8129 30.3214 53.2296 29.335 52.6289 29.0106Z" fill="#011C1A"/>
<path d="M60.6194 32.5991C59.4462 32.0496 58.1429 31.5014 56.8847 31.1899C56.3056 31.0463 55.9657 31.8358 56.4789 32.152C57.5819 32.831 58.8873 33.3772 60.1009 33.8282C60.8096 34.0912 61.3099 32.9227 60.6194 32.5991Z" fill="#011C1A"/>
<path d="M70.2565 37.2722C68.9566 36.4004 67.4186 35.8867 65.9797 35.292C65.3689 35.0391 64.9758 36.033 65.5347 36.3465C66.9014 37.1131 68.2533 37.9829 69.7529 38.4663C70.4878 38.703 70.8472 37.6687 70.2565 37.2722Z" fill="#011C1A"/>
<path d="M76.61 40.5349C75.8542 40.1506 75.0201 40.0225 74.2171 39.773C73.708 39.6152 73.3668 40.394 73.8503 40.6421C74.5953 41.0251 75.281 41.5213 76.0868 41.7748C76.8123 42.0034 77.3011 40.8862 76.61 40.5349Z" fill="#011C1A"/>
<path d="M81.656 43.2967C80.9319 43.087 80.1653 42.9893 79.425 42.8484C78.866 42.7418 78.6428 43.5199 79.189 43.7047C79.9016 43.9454 80.617 44.2373 81.3493 44.4092C82.0714 44.5798 82.3721 43.5044 81.656 43.2967Z" fill="#011C1A"/>
<path d="M18.5684 12.0533C17.0992 11.5119 15.6004 11.0575 14.1008 10.6064C13.755 10.5026 13.6424 11.0015 13.9559 11.1323C15.4069 11.7385 16.8599 12.3426 18.3459 12.8604C18.8583 13.0391 19.0687 12.2374 18.5684 12.0533Z" fill="#011C1A"/>
<path d="M27.5111 15.0874C26.1518 14.393 24.7406 13.9641 23.2275 13.7605C22.7744 13.6998 22.5567 14.3606 23.032 14.4698C24.419 14.7881 25.7364 15.3066 26.9865 15.9856C27.5758 16.3058 28.1057 15.3909 27.5111 15.0874Z" fill="#011C1A"/>
<path d="M35.6445 18.6299C33.9198 18.0224 32.1512 17.5511 30.3793 17.1048C29.9431 16.9949 29.7947 17.6078 30.1972 17.7649C31.9031 18.431 33.6211 19.0756 35.3815 19.5833C35.9998 19.7627 36.2392 18.839 35.6445 18.6299Z" fill="#011C1A"/>
<path d="M44.366 21.8628C42.8368 21.0463 41.1572 20.4948 39.4797 20.0774C38.9389 19.9426 38.7225 20.7395 39.2504 20.9088C40.8356 21.4172 42.2994 22.1137 43.7834 22.8594C44.4428 23.1911 45.0254 22.2148 44.366 21.8628Z" fill="#011C1A"/>
<path d="M52.1745 24.9139L48.2901 23.3699C47.8134 23.1804 47.4689 23.9881 47.9382 24.2046C49.2037 24.7891 50.4693 25.373 51.7342 25.957C52.4806 26.3015 52.9465 25.2207 52.1745 24.9139Z" fill="#011C1A"/>
<path d="M60.3383 27.9184C59.3566 27.4869 58.3641 27.0965 57.3648 26.7088C56.9077 26.5315 56.6319 27.2489 57.0372 27.4855C57.9218 28.002 58.8037 28.5144 59.7106 28.9918C60.43 29.3701 61.0564 28.2339 60.3383 27.9184Z" fill="#011C1A"/>
<path d="M67.5042 31.2134C66.5481 30.558 65.4039 30.175 64.2827 29.91C63.7008 29.7725 63.4992 30.5829 64.0399 30.7906C65.054 31.1803 65.9427 31.744 66.8704 32.2976C67.573 32.7169 68.163 31.6651 67.5042 31.2134Z" fill="#011C1A"/>
<path d="M77.5148 36.0674C76.6059 35.1693 74.8927 34.9434 73.6797 34.727C72.9555 34.5982 72.6562 35.6076 73.3729 35.8402C74.0289 36.0526 74.6796 36.2886 75.3114 36.5637C75.8946 36.8179 76.4097 37.124 77.053 37.1819C77.6321 37.2345 77.8931 36.4416 77.5148 36.0674Z" fill="#011C1A"/>
<path d="M21.2816 8.91393C20.0997 8.49117 18.8941 8.1763 17.6562 7.96728C17.433 7.92952 17.3359 8.26934 17.5618 8.30979C18.7977 8.53162 19.9992 8.85863 21.1771 9.29353C21.4145 9.3805 21.5197 8.99888 21.2816 8.91393Z" fill="#011C1A"/>
<path d="M30.6982 11.4356C28.9971 10.8605 27.2083 10.5004 25.4674 10.0601C24.8875 9.91382 24.6542 10.7735 25.2213 10.9528C26.9332 11.4943 28.6451 12.1301 30.3948 12.5367C31.1135 12.7032 31.3927 11.6702 30.6982 11.4356Z" fill="#011C1A"/>
<path d="M37.1771 15.3132C35.7942 14.5857 34.3951 13.875 32.9563 13.2641C32.4924 13.0673 32.1135 13.6619 32.5531 13.9539C33.8503 14.8169 35.211 15.5903 36.5756 16.3421C37.2492 16.7136 37.8554 15.6699 37.1771 15.3132Z" fill="#011C1A"/>
<path d="M47.51 18.8045C45.5655 18.0932 43.4308 17.4789 41.4067 17.0447C40.9259 16.9416 40.5423 17.6718 41.05 17.8909C42.9939 18.7297 45.1252 19.4909 47.1661 20.0519C47.9806 20.2757 48.2807 19.0863 47.51 18.8045Z" fill="#011C1A"/>
<path d="M55.6226 21.3707C54.4939 20.8617 53.3294 20.4396 52.1738 19.9959C51.687 19.8092 51.3445 20.6163 51.8171 20.8421C52.9343 21.3775 54.0415 21.9317 55.1877 22.4023C55.7743 22.6437 56.2051 21.6337 55.6226 21.3707Z" fill="#011C1A"/>
<path d="M65.2954 25.4384C63.9644 24.5949 62.4001 24.0704 60.9451 23.475C60.6491 23.3543 60.5089 23.8013 60.7401 23.9618C62.0057 24.8397 63.2773 25.8463 64.6811 26.4896C65.383 26.8119 65.9689 25.8659 65.2954 25.4384Z" fill="#011C1A"/>
<path d="M72.6312 28.7719C71.5491 27.8563 69.9983 27.5974 68.6559 27.2697C68.1313 27.1423 67.9189 27.9163 68.4334 28.0768C69.7374 28.4847 70.7474 29.3619 71.9954 29.8629C72.5982 30.1056 73.114 29.1805 72.6312 28.7719Z" fill="#011C1A"/>
<path d="M79.2032 31.2904C79.1391 31.3032 79.0744 31.3329 79.011 31.3713C78.9355 31.3578 78.8593 31.3443 78.8101 31.3261C78.5154 31.2223 78.2228 31.113 77.9322 30.9998C77.3571 30.7766 76.792 30.5312 76.2324 30.2709C75.5609 29.9587 74.9911 30.8804 75.6431 31.2789C76.2931 31.6754 76.9539 32.0523 77.6328 32.3975C78.1756 32.6726 78.9335 33.1911 79.576 33.096C80.8639 32.9052 80.489 31.0348 79.2032 31.2904Z" fill="#011C1A"/>
<path d="M24.9873 6.08271C23.2167 5.32822 21.3854 4.72072 19.569 4.08828C19.2541 3.97905 19.0289 4.4962 19.3391 4.63307C21.0962 5.40779 22.8486 6.21689 24.6549 6.87024C25.1093 7.03475 25.4384 6.2742 24.9873 6.08271Z" fill="#011C1A"/>
<path d="M33.3224 9.53486C31.8154 8.86735 30.2916 8.24435 28.7671 7.61864C28.2904 7.42244 27.9547 8.22412 28.4152 8.45337C29.8473 9.16605 31.276 9.88075 32.727 10.5543C33.4147 10.8726 34.0115 9.8403 33.3224 9.53486Z" fill="#011C1A"/>
<path d="M43.7679 13.1698C42.7916 12.7052 41.7337 12.4841 40.6926 12.2076C39.5545 11.9056 38.4157 11.5448 37.2566 11.3345C36.8602 11.2623 36.5284 11.8489 36.9586 12.0418C37.9262 12.476 38.9443 12.7942 39.9429 13.1496C41.0479 13.5427 42.1611 14.0409 43.3229 14.225C43.9115 14.318 44.4104 13.4759 43.7679 13.1698Z" fill="#011C1A"/>
<path d="M53.1919 16.6078C51.8764 15.852 50.443 15.289 49.0581 14.6734C48.4169 14.3882 47.8491 15.2877 48.4944 15.6369C49.8753 16.3847 51.2413 17.1877 52.693 17.7898C53.38 18.075 53.8129 16.9638 53.1919 16.6078Z" fill="#011C1A"/>
<path d="M64.5247 20.3776C62.7777 19.5456 60.7159 18.8693 58.8219 18.4809C58.2313 18.3596 57.8051 19.1869 58.3917 19.5011C60.0834 20.4073 62.1102 21.2278 63.9678 21.6998C64.7317 21.8933 65.2893 20.7417 64.5247 20.3776Z" fill="#011C1A"/>
<path d="M72.2449 24.2248C71.0015 23.4184 69.6638 22.7684 68.3389 22.1103C67.5939 21.7402 66.9857 22.7684 67.6856 23.2276C68.9228 24.038 70.1594 24.8633 71.483 25.5281C72.35 25.9637 73.0641 24.7561 72.2449 24.2248Z" fill="#011C1A"/>
<path d="M32.4573 4.91835C30.7393 4.0607 28.8959 3.38713 27.1011 2.71085C26.6729 2.54971 26.3756 3.25093 26.7882 3.45253C28.5129 4.29535 30.2673 5.17187 32.0716 5.83398C32.6016 6.02884 32.9644 5.17119 32.4573 4.91835Z" fill="#011C1A"/>
<path d="M39.9105 7.63692C38.4305 6.7523 36.6808 6.1684 34.9703 5.95668C34.4444 5.89128 34.3945 6.6896 34.8503 6.8413C36.3963 7.35508 37.8716 7.91538 39.3664 8.56806C39.986 8.8391 40.5221 8.00304 39.9105 7.63692Z" fill="#011C1A"/>
<path d="M50.7005 11.9407C49.8294 11.4876 48.8497 11.3089 47.9206 11.0041C46.9234 10.6771 45.9437 10.2968 44.9741 9.89499C44.4819 9.69136 44.1745 10.485 44.6175 10.7412C46.3058 11.7175 48.4088 12.9453 50.387 13.0984C51.0026 13.1462 51.2339 12.2178 50.7005 11.9407Z" fill="#011C1A"/>
<path d="M59.0188 14.8682C57.6642 14.0854 56.1417 13.5528 54.7009 12.95C54.0583 12.6817 53.6119 13.7584 54.2269 14.0747C55.6212 14.7914 57.0081 15.5978 58.4861 16.1325C59.2338 16.4022 59.6849 15.2532 59.0188 14.8682Z" fill="#011C1A"/>
<path d="M68.1178 18.1546C67.0835 17.6705 65.9298 17.5539 64.8349 17.2572C64.377 17.1331 64.052 17.8256 64.5024 18.0454C65.5084 18.5362 66.4537 19.2226 67.5359 19.5341C68.3363 19.7647 68.908 18.5248 68.1178 18.1546Z" fill="#011C1A"/>
<path d="M75.8204 21.6944C75.2244 21.3404 74.5117 21.2271 73.8469 21.0511C73.1396 20.8637 72.4384 20.6654 71.719 20.5306C71.1209 20.4187 70.6193 21.3174 71.2692 21.5973C71.9462 21.8885 72.6359 22.1252 73.3331 22.3659C74.033 22.608 74.7302 22.9289 75.4745 22.9714C76.1717 23.0105 76.3814 22.0274 75.8204 21.6944Z" fill="#011C1A"/>
<path d="M38.4271 2.84356C36.7887 2.18347 35.1233 1.56383 33.4498 1.00016C32.9671 0.837665 32.6225 1.62114 33.0979 1.83488C34.7511 2.57858 36.4368 3.27373 38.1305 3.92034C38.8061 4.17791 39.0825 3.10719 38.4271 2.84356Z" fill="#011C1A"/>
<path d="M48.2483 6.92889C46.4056 6.04562 44.4327 5.33833 42.5158 4.63307C42.0459 4.46046 41.7249 5.22033 42.174 5.44419C44.0032 6.35712 45.8716 7.30445 47.7797 8.0414C48.4189 8.28818 48.8693 7.22623 48.2483 6.92889Z" fill="#011C1A"/>
<path d="M56.7459 10.3204C54.9187 9.29217 52.8042 8.70085 50.7862 8.17224C50.1746 8.01244 49.9319 8.91863 50.5266 9.11416C52.5035 9.76549 54.3422 10.6845 56.2766 11.4329C56.9273 11.6851 57.3365 10.6528 56.7459 10.3204Z" fill="#011C1A"/>
<path d="M66.536 14.2872C64.4586 13.4706 62.2612 13.0229 60.1515 12.319C59.6687 12.1579 59.4975 12.8813 59.9459 13.0654C62.0246 13.9183 64.0008 15.0221 66.1281 15.7671C67.072 16.0982 67.4375 14.6418 66.536 14.2872Z" fill="#011C1A"/>
<path d="M49.8112 4.07615C48.28 3.23468 46.6894 2.58538 45.0024 2.12891C44.5015 1.99339 44.308 2.73305 44.79 2.89959C46.357 3.44033 47.8565 4.13548 49.2799 4.98504C49.8631 5.33363 50.4045 4.40249 49.8112 4.07615Z" fill="#011C1A"/>
<path d="M59.8258 8.85055C58.0141 8.04819 56.1734 7.30651 54.3314 6.57764C53.7589 6.3511 53.3591 7.30247 53.9113 7.57486C55.6367 8.42442 57.3702 9.26521 59.1287 10.0446C59.9344 10.4013 60.639 9.2106 59.8258 8.85055Z" fill="#011C1A"/>
<path d="M11.6924 16.6948C10.3203 16.3287 8.91046 16.0556 7.52892 15.7164C7.12437 15.6173 6.95581 16.2248 7.35699 16.3401C8.72369 16.7332 10.0823 17.1985 11.4537 17.5632C12.0134 17.7129 12.2527 16.8445 11.6924 16.6948Z" fill="#011C1A"/>
<path d="M19.7012 19.6312C18.2637 19.05 16.7304 18.6192 15.245 18.1769C14.8472 18.0582 14.5674 18.6758 14.9564 18.8606C16.3993 19.5463 17.8719 20.2711 19.3735 20.8179C20.1279 21.0917 20.4199 19.9218 19.7012 19.6312Z" fill="#011C1A"/>
<path d="M27.6951 22.91C26.2468 22.3679 24.7628 21.7335 23.2585 21.3701C22.7252 21.2413 22.351 22.0146 22.8722 22.2857C24.2888 23.022 25.874 23.5371 27.3674 24.0967C28.1105 24.3745 28.4314 23.1851 27.6951 22.91Z" fill="#011C1A"/>
<path d="M35.4895 26.6879C34.1976 26.1202 32.8605 25.6792 31.5188 25.2443C31.0542 25.094 30.7292 25.8302 31.1817 26.0447C32.454 26.6468 33.7276 27.2482 35.0546 27.7195C35.6493 27.9312 36.0774 26.9461 35.4895 26.6879Z" fill="#011C1A"/>
<path d="M45.1488 29.9412C44.0241 29.3175 42.6588 28.8718 41.4026 28.5974C40.8309 28.4727 40.4223 29.2845 40.9873 29.5825C42.1194 30.1805 43.4544 30.7361 44.7092 30.9842C45.3153 31.1043 45.7441 30.2716 45.1488 29.9412Z" fill="#011C1A"/>
<path d="M53.4603 33.4176C52.372 32.7561 51.1287 32.0576 49.9049 31.6902C49.4774 31.562 49.0985 32.1574 49.4545 32.4642C50.4227 33.2989 51.664 33.9718 52.8076 34.5348C53.5486 34.8996 54.179 33.8545 53.4603 33.4176Z" fill="#011C1A"/>
<path d="M64.2037 37.5345C62.9962 36.9822 61.7043 36.602 60.4502 36.1678C59.8609 35.9635 59.4361 36.9364 60.02 37.1879C61.235 37.7111 62.4453 38.3119 63.7048 38.7171C64.3905 38.9376 64.8773 37.8426 64.2037 37.5345Z" fill="#011C1A"/>
<path d="M73.5522 42.4472C72.3022 41.452 70.6779 41.0656 69.1029 41.0427C68.2209 41.0299 68.26 42.3002 69.1029 42.3872C70.4143 42.5227 71.4607 43.0722 72.6069 43.6723C73.3473 44.0593 74.2791 43.0257 73.5522 42.4472Z" fill="#011C1A"/>
<path d="M80.9103 46.3882C79.4836 45.8838 78.0879 45.335 76.6235 44.9432C76.2344 44.8394 75.9512 45.4341 76.3403 45.6155C77.7056 46.2526 79.0858 46.8999 80.344 47.7333C81.1949 48.2963 81.9655 46.7603 80.9103 46.3882Z" fill="#011C1A"/>
<path d="M10.6993 22.2688C8.76685 21.3498 6.78455 20.5697 4.88586 19.5745C4.38826 19.3142 3.95337 20.0472 4.44423 20.3303C6.31392 21.4085 8.27197 22.4751 10.3379 23.1265C10.8361 23.2842 11.1847 22.5001 10.6993 22.2688Z" fill="#011C1A"/>
<path d="M19.7315 25.0354C17.6858 24.4164 15.6732 23.7118 13.7206 22.8407C13.1596 22.5905 12.6633 23.3781 13.2277 23.6842C15.1992 24.7535 17.2314 25.6772 19.3573 26.3933C20.2136 26.6812 20.6006 25.2983 19.7315 25.0354Z" fill="#011C1A"/>
<path d="M30.7171 29.2453C28.6195 28.3917 26.5839 27.532 24.5322 26.5712C23.9766 26.3116 23.5795 27.0196 24.0582 27.3816C25.8739 28.7524 28.163 29.9404 30.3429 30.6025C31.2315 30.8729 31.5329 29.577 30.7171 29.2453Z" fill="#011C1A"/>
<path d="M39.6462 32.9758C38.0084 32.2079 36.2399 31.6327 34.5273 31.0562C33.9899 30.8755 33.611 31.7406 34.1362 31.9833C35.7733 32.7398 37.4529 33.5449 39.1675 34.1119C39.8262 34.3297 40.2887 33.2772 39.6462 32.9758Z" fill="#011C1A"/>
<path d="M52.4576 37.5804C50.4342 36.8785 48.4431 36.4423 46.5094 35.4613C46.036 35.2212 45.647 35.8827 46.0934 36.1733C47.872 37.3303 49.9811 38.5304 52.1144 38.8278C52.9222 38.9404 53.2647 37.8602 52.4576 37.5804Z" fill="#011C1A"/>
<path d="M63.5052 41.303C61.7124 40.8897 60.0066 40.4157 58.356 39.5796C57.7114 39.2533 57.1579 40.1784 57.7863 40.5546C59.4308 41.5383 61.231 42.3447 63.131 42.661C64.0062 42.8066 64.4027 41.51 63.5052 41.303Z" fill="#011C1A"/>
<path d="M70.4669 44.7268C69.8526 44.062 68.8925 43.7755 68.0032 43.8341C67.2049 43.8867 67.219 44.9898 68.0032 45.0646C68.5641 45.1179 69.0031 45.4173 69.4177 45.7766C70.1351 46.399 71.1209 45.4348 70.4669 44.7268Z" fill="#011C1A"/>
<path d="M78.2956 47.9228C76.6923 47.2061 74.8408 46.7078 73.1356 46.2918C72.5281 46.1434 72.0757 47.0584 72.6906 47.3463C74.2683 48.086 76.0194 48.8823 77.7036 49.3252C78.5134 49.5383 79.1142 48.2889 78.2956 47.9228Z" fill="#011C1A"/>
<path d="M7.80131 24.7879C6.25256 24.2154 4.68627 23.6922 3.1247 23.1562C2.69925 23.0105 2.54553 23.6538 2.94266 23.8169C4.47726 24.446 6.00646 25.0879 7.55522 25.6812C8.11012 25.893 8.35824 24.9935 7.80131 24.7879Z" fill="#011C1A"/>
<path d="M15.7063 28.5184C14.1043 27.6041 12.3519 26.9312 10.6676 26.1835C10.1794 25.967 9.74928 26.6467 10.2388 26.9177C11.8462 27.8057 13.4347 28.7922 15.1237 29.515C15.7865 29.7981 16.3704 28.8973 15.7063 28.5184Z" fill="#011C1A"/>
<path d="M25.2044 32.3124C23.5397 31.62 21.6835 31.2518 19.95 30.763C19.445 30.6207 19.2683 31.351 19.7376 31.5337C21.4232 32.1884 23.1351 33.0143 24.8875 33.462C25.6535 33.6576 25.8928 32.599 25.2044 32.3124Z" fill="#011C1A"/>
<path d="M36.0969 36.4787C34.2488 35.5085 32.1114 34.9859 30.1332 34.3413C29.6234 34.1748 29.2567 35.0008 29.7617 35.2219C31.657 36.0526 33.6096 37.1004 35.6229 37.6034C36.2796 37.7672 36.7327 36.8125 36.0969 36.4787Z" fill="#011C1A"/>
<path d="M48.7621 40.0785C47.9408 39.5836 46.9854 39.3213 46.0779 39.026C45.0928 38.705 44.1118 38.3436 43.1044 38.1009C42.5441 37.9661 42.1504 38.7785 42.6985 39.0631C43.5454 39.502 44.4421 39.8432 45.32 40.2133C46.2673 40.6132 47.2362 41.1067 48.2537 41.2841C48.9623 41.4081 49.4383 40.4857 48.7621 40.0785Z" fill="#011C1A"/>
<path d="M60.0875 44.9587C58.4868 44.1017 56.4209 43.7794 54.6773 43.294C53.9639 43.0951 53.7124 44.1267 54.3772 44.3822C56.0109 45.0106 57.8179 45.9741 59.5494 46.2337C60.2709 46.3416 60.8453 45.3639 60.0875 44.9587Z" fill="#011C1A"/>
<path d="M70.982 49.4067C69.0294 48.6765 67.039 47.9996 65.0736 47.3024C64.4587 47.0846 64.1262 47.9969 64.6434 48.3225C66.4227 49.4411 68.5251 50.3999 70.5599 50.9359C71.5632 51.1995 71.9233 49.7587 70.982 49.4067Z" fill="#011C1A"/>
<path d="M81.4356 53.4968C79.6657 52.5805 77.4467 51.8449 75.4449 51.7639C74.7119 51.7343 74.6641 52.7436 75.281 52.9722C76.138 53.2898 77.0321 53.4907 77.8877 53.8191C78.7993 54.169 79.6522 54.6241 80.5328 55.0408C81.5603 55.5276 82.4679 54.0315 81.4356 53.4968Z" fill="#011C1A"/>
<path d="M9.09388 29.6243C7.3705 28.6304 5.50821 27.7215 3.65806 26.9853C3.12338 26.7729 2.8139 27.6076 3.27711 27.8894C4.93847 28.9022 6.74883 29.8151 8.53694 30.577C9.17074 30.8474 9.72768 29.9897 9.09388 29.6243Z" fill="#011C1A"/>
<path d="M17.3555 32.9462C15.8209 32.2699 14.1454 31.7224 12.5339 31.2619C12.0545 31.1251 11.7194 31.8559 12.1867 32.0852C13.6869 32.8201 15.2957 33.5463 16.8815 34.0709C17.5321 34.2859 17.9994 33.2294 17.3555 32.9462Z" fill="#011C1A"/>
<path d="M27.273 37.0585C25.2712 36.1672 23.1243 35.2967 21.0133 34.7121C20.542 34.5813 20.2338 35.2718 20.6761 35.5118C22.5971 36.5542 24.7486 37.4246 26.8037 38.171C27.445 38.4037 27.9048 37.3397 27.273 37.0585Z" fill="#011C1A"/>
<path d="M39.6799 42.526C37.5823 40.9881 34.8442 40.332 32.3225 39.8992C31.777 39.8054 31.5383 40.5849 32.0899 40.7433C34.5913 41.4621 36.8062 42.6953 39.2106 43.6392C39.9024 43.911 40.1903 42.9002 39.6799 42.526Z" fill="#011C1A"/>
<path d="M50.9878 46.343C49.0486 45.3545 46.744 45.0747 44.6869 44.3917C44.2621 44.2508 44.1016 44.896 44.5048 45.0524C46.4817 45.8177 48.4121 47.0644 50.4895 47.5256C51.1725 47.6773 51.6714 46.6916 50.9878 46.343Z" fill="#011C1A"/>
<path d="M59.5224 49.9326C57.8543 48.9799 55.9098 48.4156 54.1203 47.7292C53.5405 47.5067 53.1325 48.4675 53.6949 48.7379C55.4243 49.5679 57.1693 50.5914 59.0086 51.1503C59.7335 51.3695 60.1771 50.3062 59.5224 49.9326Z" fill="#011C1A"/>
<path d="M68.0881 53.7354C66.8974 52.9694 65.3736 52.5642 64.0547 52.0693C63.4209 51.8313 63.0036 52.8453 63.5956 53.1589C64.847 53.8217 66.1564 54.6833 67.5258 55.0683C68.3396 55.2969 68.7738 54.1763 68.0881 53.7354Z" fill="#011C1A"/>
<path d="M77.5229 57.7357C75.7213 56.6819 73.6325 56.1249 71.5673 55.9449C71.0885 55.9031 71.0494 56.6016 71.4594 56.7426C73.3109 57.3777 74.9823 58.2246 76.6909 59.1597C77.6214 59.6695 78.4413 58.2738 77.5229 57.7357Z" fill="#011C1A"/>
<path d="M6.06244 32.1067C4.84744 31.5006 3.64053 30.8803 2.40059 30.328C1.90434 30.1076 1.47619 30.7825 1.96502 31.0724C3.12945 31.7635 4.33096 32.3879 5.52439 33.0264C6.13121 33.3514 6.67331 32.4115 6.06244 32.1067Z" fill="#011C1A"/>
<path d="M14.0563 36.2225C12.6154 35.4262 11.091 34.785 9.57727 34.1425C9.11743 33.9476 8.71895 34.5598 9.17407 34.8322C10.5785 35.6751 11.9884 36.526 13.4744 37.2191C14.1366 37.5286 14.7171 36.588 14.0563 36.2225Z" fill="#011C1A"/>
<path d="M22.291 39.8613C20.8535 39.0192 19.0701 38.6322 17.4829 38.1575C16.9422 37.9964 16.7426 38.7974 17.2537 38.9889C18.8038 39.5707 20.2608 40.4473 21.8365 40.9388C22.4811 41.1404 22.8634 40.1964 22.291 39.8613Z" fill="#011C1A"/>
<path d="M29.6605 42.0588C28.4644 41.6468 27.217 41.3501 26.0108 40.9577C25.6069 40.8263 25.3251 41.4654 25.7175 41.6536C26.8577 42.1997 27.9614 42.8443 29.1076 43.3689C30.0502 43.7997 30.6442 42.3979 29.6605 42.0588Z" fill="#011C1A"/>
<path d="M7.93956 36.8792C6.46429 35.9744 4.83327 35.3722 3.24406 34.694C2.77073 34.4917 2.348 35.1464 2.82806 35.406C4.38356 36.2454 5.90265 37.1556 7.56805 37.7604C8.09531 37.9519 8.3913 37.1563 7.93956 36.8792Z" fill="#011C1A"/>
<path d="M14.355 39.4817C13.1057 38.9369 11.8111 38.5546 10.5388 38.0739C10.1821 37.939 9.94409 38.5135 10.2799 38.6881C11.4423 39.2936 12.5467 39.9854 13.7408 40.5329C14.4521 40.8599 15.0677 39.7926 14.355 39.4817Z" fill="#011C1A"/>
<path d="M23.7002 43.0965C21.7792 41.9866 19.6142 41.4412 17.4647 40.9739C17.0399 40.8815 16.9037 41.452 17.2894 41.6097C19.2872 42.429 21.2034 43.4619 23.2356 44.1975C23.8869 44.4335 24.28 43.4316 23.7002 43.0965Z" fill="#011C1A"/>
<path d="M7.43318 39.8304C6.33482 39.266 5.16701 38.8244 4.00865 38.3982C3.50229 38.2121 3.16855 39.0179 3.64188 39.2673C4.73618 39.8438 5.84532 40.4102 7.00301 40.8498C7.59365 41.075 7.99213 40.1176 7.43318 39.8304Z" fill="#011C1A"/>
<path d="M14.9322 43.0128C13.6161 42.0884 11.8401 41.6495 10.3068 41.2274C9.66022 41.0494 9.42154 41.994 10.0338 42.2179C11.5407 42.7694 12.9452 43.6291 14.4629 44.1246C15.156 44.3525 15.4669 43.389 14.9322 43.0128Z" fill="#011C1A"/>
<path d="M19.4328 44.6681C18.5496 44.3398 17.5584 44.2015 16.6408 43.9892C16.1108 43.8671 15.9402 44.5886 16.4216 44.7841C17.2988 45.1408 18.1935 45.6006 19.1092 45.842C19.8792 46.0449 20.157 44.9371 19.4328 44.6681Z" fill="#011C1A"/>
<path d="M7.96987 43.4397C6.99558 43.0028 6.02601 42.5632 5.03149 42.1721C4.58715 41.9975 4.32489 42.6926 4.71393 42.9253C5.59383 43.4518 6.49663 43.9299 7.40013 44.414C8.05011 44.7626 8.6212 43.7317 7.96987 43.4397Z" fill="#011C1A"/>
<path d="M14.3672 45.5177C13.8844 45.2352 13.3201 45.1806 12.7706 45.1165C12.1266 45.0417 11.4848 44.9534 10.8429 44.8644C10.348 44.7956 10.1498 45.4422 10.6339 45.6229C11.209 45.8373 11.7862 46.047 12.3559 46.2742C12.8973 46.49 13.4495 46.7442 14.0408 46.7233C14.6706 46.701 14.9349 45.8494 14.3672 45.5177Z" fill="#011C1A"/>
<path d="M48.2011 48.6227C46.9025 47.7327 45.5803 46.8642 44.2176 46.076C43.9048 45.8953 43.5178 46.3525 43.8178 46.5939C45.0726 47.6025 46.386 48.5445 47.7143 49.4547C48.2274 49.8067 48.7102 48.9719 48.2011 48.6227Z" fill="#011C1A"/>
<path d="M55.9489 52.3977C54.6045 51.5494 52.9195 50.8165 51.3512 50.5313C50.8678 50.4437 50.4733 51.1449 50.9898 51.389C52.4489 52.0794 53.8823 52.7294 55.3091 53.4926C56.0298 53.879 56.64 52.8339 55.9489 52.3977Z" fill="#011C1A"/>
<path d="M63.398 55.6731C62.0954 55.0157 60.7098 54.5674 59.2669 54.357C58.8327 54.2936 58.6682 54.856 59.0849 55.0171C60.3585 55.5113 61.5654 56.1026 62.7447 56.7897C63.4695 57.2125 64.1377 56.0467 63.398 55.6731Z" fill="#011C1A"/>
<path d="M70.7777 60.1778C69.7131 59.5548 68.5628 59.0788 67.4321 58.5906C66.8758 58.3506 66.4045 59.0855 66.9453 59.4233C67.9863 60.0726 69.0294 60.7442 70.1433 61.2627C70.8647 61.5978 71.4877 60.5931 70.7777 60.1778Z" fill="#011C1A"/>
<path d="M77.556 62.7319C77.1042 62.56 76.6113 62.5081 76.1549 62.326C75.6957 62.1426 75.2682 61.8945 74.861 61.6167C74.3425 61.2627 73.7013 62.0806 74.1847 62.4932C75.0471 63.2295 76.2115 64.0069 77.3706 64.1027C78.2093 64.1708 78.239 62.9915 77.556 62.7319Z" fill="#011C1A"/>
<path d="M53.3618 55.3369C52.4361 54.8871 51.4901 54.4792 50.5509 54.0585C50.1645 53.8859 49.8247 54.4246 50.2117 54.639C51.1071 55.1359 51.9965 55.6457 52.9074 56.1143C53.4239 56.3806 53.881 55.5897 53.3618 55.3369Z" fill="#011C1A"/>
<path d="M60.8757 59.0593C59.2703 58.3359 57.6143 57.7061 55.9665 57.0872C55.6314 56.9618 55.4291 57.4823 55.7271 57.6549C57.2105 58.5159 58.7059 59.3803 60.2419 60.1435C60.9707 60.5056 61.6039 59.3877 60.8757 59.0593Z" fill="#011C1A"/>
<path d="M68.0464 62.0659C66.8334 61.2358 65.375 60.9466 63.9597 60.6439C63.539 60.5535 63.3617 61.1731 63.7811 61.2925C65.1215 61.6721 66.2286 62.4461 67.4449 63.0954C68.1279 63.4602 68.6761 62.496 68.0464 62.0659Z" fill="#011C1A"/>
<path d="M75.4152 65.6138C74.8077 65.1175 74.0512 64.9206 73.3082 64.6867C72.4883 64.4284 71.6711 64.1608 70.8539 63.8931C70.4157 63.7495 70.1406 64.4129 70.5411 64.6348C71.2477 65.0272 71.957 65.4142 72.6575 65.8174C73.2994 66.1869 73.9939 66.6757 74.7363 66.7795C75.331 66.8632 76.0261 66.1134 75.4152 65.6138Z" fill="#011C1A"/>
<path d="M55.628 60.186C54.4217 59.563 53.2121 58.9501 51.9964 58.346C51.4382 58.0682 50.9574 58.8651 51.5036 59.1895C52.6687 59.8812 53.8378 60.5636 55.013 61.2372C55.6974 61.6296 56.3224 60.5447 55.628 60.186Z" fill="#011C1A"/>
<path d="M63.2315 63.8823C61.6652 63.2808 60.0686 62.7563 58.4733 62.2378C58.1011 62.1164 57.8503 62.6956 58.2043 62.8756C59.6991 63.6328 61.2 64.3866 62.7326 65.0649C63.5841 65.4418 64.1101 64.2201 63.2315 63.8823Z" fill="#011C1A"/>
<path d="M71.4985 67.6924C70.7608 67.3944 69.9726 67.24 69.2337 66.9305C68.496 66.6217 67.7914 66.2441 67.1125 65.8234C66.6944 65.5645 66.1726 66.203 66.5744 66.5206C67.8582 67.5374 69.5081 68.6559 71.1613 68.9155C71.9725 69.043 72.2584 67.9992 71.4985 67.6924Z" fill="#011C1A"/>
<path d="M58.5326 64.7574C57.5502 64.4203 56.5672 64.094 55.6205 63.6631C54.8161 63.297 54.0623 62.8271 53.2391 62.5054C52.8615 62.3585 52.5918 62.9039 52.8568 63.1628C54.2356 64.5086 56.3757 65.4148 58.1995 65.9684C58.979 66.2044 59.2912 65.0177 58.5326 64.7574Z" fill="#011C1A"/>
<path d="M67.6997 68.8258C65.6392 67.8596 63.3953 67.3647 61.3335 66.3729C60.879 66.1544 60.5115 66.77 60.9363 67.0519C62.8633 68.3296 65.0823 69.6248 67.4374 69.7947C67.9398 69.8311 68.1636 69.0429 67.6997 68.8258Z" fill="#011C1A"/>
<path d="M59.486 68.4342C58.0816 67.7619 56.6009 67.2286 55.158 66.6447C54.7198 66.468 54.4136 67.1996 54.8357 67.41C56.1869 68.0842 57.526 68.8198 58.917 69.4084C59.5683 69.6849 60.1529 68.7531 59.486 68.4342Z" fill="#011C1A"/>
<path d="M65.9764 71.0408C64.6434 70.5256 63.1499 70.0071 61.7569 69.6943C61.2721 69.585 60.9512 70.2566 61.4097 70.5175C62.6995 71.2505 64.2105 71.8883 65.5954 72.4236C66.4564 72.7554 66.8293 71.3705 65.9764 71.0408Z" fill="#011C1A"/>
</svg>
