<svg width="133" height="154" viewBox="0 0 133 154" fill="none" xmlns="http://www.w3.org/2000/svg">
<circle cx="66.5" cy="87.5" r="61.5" stroke="#FFCD20" stroke-width="10"/>
<path d="M68.3104 39.8147C64.8672 43.344 59.8893 45.3595 55.8253 41.3428C51.2101 36.7836 54.3872 31.2357 56.8278 26.5673C57.2681 25.7257 56.2862 24.4253 55.3802 25.1214C55.3327 25.1578 55.29 25.2005 55.2424 25.2384C54.7103 24.4269 53.7315 24.0013 52.6894 24.7464C49.3586 27.1273 43.2309 33.2463 39.7386 27.5734C36.8909 22.9462 40.5764 17.6814 42.6195 13.5873C43.1137 12.597 42.0795 11.4991 41.1719 11.9072C40.5701 11.2823 39.5549 10.9802 38.7107 11.4089C34.6704 13.4655 29.843 19.1289 25.5367 14.0192C21.9113 9.71621 25.2627 4.85167 28.7359 1.83012C29.5579 1.11507 28.6837 -0.248592 27.6922 0.0393259C20.6918 2.07848 17.6272 10.8252 22.0887 16.6832C25.7251 21.4575 31.6881 21.2124 36.3794 18.5341C34.4709 22.6156 34.0322 27.2112 37.1475 31.0316C40.7016 35.3931 46.0738 34.6037 50.4134 32.0124C48.9532 36.2869 49.6279 41.096 53.2595 44.6476C58.4417 49.7162 68.0982 49.0802 71.7266 42.4471C72.8892 40.3225 70.0763 38.0033 68.3104 39.8147Z" fill="#011C1A"/>
</svg>
