<svg width="49" height="79" viewBox="0 0 49 79" fill="none" xmlns="http://www.w3.org/2000/svg">
<circle cx="47" cy="2" r="2" transform="rotate(90 47 2)" fill="#6FC081"/>
<circle cx="47" cy="17" r="2" transform="rotate(90 47 17)" fill="#6FC081"/>
<circle cx="47" cy="32" r="2" transform="rotate(90 47 32)" fill="#6FC081"/>
<circle cx="32" cy="2" r="2" transform="rotate(90 32 2)" fill="#6FC081"/>
<circle cx="32" cy="17" r="2" transform="rotate(90 32 17)" fill="#6FC081"/>
<circle cx="32" cy="32" r="2" transform="rotate(90 32 32)" fill="#6FC081"/>
<circle cx="17" cy="2" r="2" transform="rotate(90 17 2)" fill="#6FC081"/>
<circle cx="17" cy="17" r="2" transform="rotate(90 17 17)" fill="#6FC081"/>
<circle cx="17" cy="32" r="2" transform="rotate(90 17 32)" fill="#6FC081"/>
<circle cx="2" cy="2" r="2" transform="rotate(90 2 2)" fill="#6FC081"/>
<circle cx="2" cy="17" r="2" transform="rotate(90 2 17)" fill="#6FC081"/>
<circle cx="2" cy="32" r="2" transform="rotate(90 2 32)" fill="#6FC081"/>
<circle cx="47" cy="47" r="2" transform="rotate(90 47 47)" fill="#6FC081"/>
<circle cx="47" cy="62" r="2" transform="rotate(90 47 62)" fill="#6FC081"/>
<circle cx="47" cy="77" r="2" transform="rotate(90 47 77)" fill="#6FC081"/>
<circle cx="32" cy="47" r="2" transform="rotate(90 32 47)" fill="#6FC081"/>
<circle cx="32" cy="62" r="2" transform="rotate(90 32 62)" fill="#6FC081"/>
<circle cx="32" cy="77" r="2" transform="rotate(90 32 77)" fill="#6FC081"/>
<circle cx="17" cy="47" r="2" transform="rotate(90 17 47)" fill="#6FC081"/>
<circle cx="17" cy="62" r="2" transform="rotate(90 17 62)" fill="#6FC081"/>
<circle cx="17" cy="77" r="2" transform="rotate(90 17 77)" fill="#6FC081"/>
<circle cx="2" cy="47" r="2" transform="rotate(90 2 47)" fill="#6FC081"/>
<circle cx="2" cy="62" r="2" transform="rotate(90 2 62)" fill="#6FC081"/>
<circle cx="2" cy="77" r="2" transform="rotate(90 2 77)" fill="#6FC081"/>
</svg>
