<svg version="1.2" xmlns="http://www.w3.org/2000/svg" viewBox="0 0 536 109" width="536" height="109"><style>.a{fill:#b0191e}</style><path fill-rule="evenodd" class="a" d="m6.6 28.7c-0.7 0.6-1.4 1.3-2.2 1.7-0.5 0.1-1 0.2-1.5 0.3-1.1 0.2-2.3 0.4-2.9 1.3v76.3h536v-108.3h-536 536v5.8l-1.7 0.8c0 0-1.4 1.3-2.7 2.4-1.2 1.1-2.9 5.5-2.9 5.5l-1.4 2.2-3.5 1.9-1.6 1.3-1.9-0.2-2.3 1.6c0 0-2-0.5-4.2 1.3-2.1 1.7-4.1 1.6-4.7 1.5q-0.1 0-0.1 0c-0.3 0-3.2 1-3.2 1 0 0-3.6 3.2-4.1 3.6-0.4 0.3-5.1 0.7-5.1 0.7 0 0-2.7-1.5-4.5-1.6-1.5 0-2.6 0.5-3.1 0.7q-0.2 0.1-0.3 0.1 0 0-0.2-0.1c-0.4-0.3-1.3-0.8-2.7-0.7-1.7 0.2-1.9 1.5-1.9 1.5 0 0-1.6 0.1-2.7 0.5-1 0.4-1.7 1.3-1.9 3.6-0.2 2-1.9 1.6-2.5 1.5q-0.2-0.1-0.3-0.1c-0.1 0-0.4-0.1-0.6-0.3-0.2-0.1-0.3-0.2-0.4-0.2-0.1 0-0.8 0-1.5-0.1-0.6 0-1.3 0-1.5 0-0.4-0.1-2.6-0.9-4.2-1.8-1.6-0.8-1.8-1.1-1.8-1.1 0 0-2 1.3-2.4 1.6-0.4 0.3-2 1.8-2.1 1.9-0.1 0.1-0.4 0.1-0.9 0-0.6 0-1.5-0.1-2.2 0-1.1 0.1-1.2 0.2-1.2 0.3q0 0-0.1 0c-0.1 0.1-3.4-2.2-3.4-2.2 0 0-3.2-2.9-3.5-2.9-0.2-0.1-5.9-0.6-5.9-0.6 0 0-3.9-5.3-4.2-3.7-0.3 1.6-2.3 1.1-2.3 1.1-0.4-0.9-1.7-0.7-1.7-0.7 0 0-6-0.6-7.2-0.1-0.6 0.4-1.6 1-2.3 1.4-0.6 0.4-1.1 0.7-1.2 0.7-0.1 0-1.4-0.4-2-0.6-0.6-0.2-0.6 0.7-0.6 0.7 0 0-1.3 0.3-1.9-0.2-0.6-0.6-2.6-1.2-2.6-1.2 0 0-1.9-0.8-2.1-0.9-0.1 0-0.4-0.2-0.8-0.5-0.7-0.4-1.7-1.1-1.9-1.1-0.1 0-0.8 0.3-1.3 0.5-0.4 0.2-0.8 0.4-0.9 0.4-0.1 0-2.5-1.4-2.5-1.4 0 0-0.6-0.9-1.7-1-1-0.2-1.5 0.3-1.5 0.3l-1.8-0.2c0 0-2.3 0.3-2.6 0.4-0.4 0.1-1.2 1.5-1.2 1.5l-1.7 1.5-7.3 0.3c0 0-4.3 0-6.5-1.8-2-1.6-2.1-1.5-2.2-1.1q-0.1 0-0.1 0c-0.2 0.4-1.8 0.6-2 0.6q0 0-0.3 0c-1.1-0.3-4.3-1.2-5.4-0.3-1.2 1.1-6.1 0-6.1 0 0 0-2.1-2.1-3-1.2-0.8 0.9-3.1 1.5-3.8 1.4-0.7-0.1-1.4-0.6-1.4-0.6 0 0-1.6 0.4-1.8 0.4q0 0 0 0c-0.3 0-1.8 0-2.1-0.5-0.4-0.6-3.2-1.9-3.2-1.9l-3.2 2c0 0-4.2 0-4.8 0-0.5 0-3.3 0.4-4.2 0.7h-0.2c-1 0.4-3.5 1.2-3.8 1.3-0.4 0.2-2.3 0.5-2.7 0.4-0.4 0-1.6 0.1-1.9 0.1-0.2 0-0.4 0.2-0.6 0.2-0.1 0.1-0.3 0.2-0.4 0.2-0.1 0-1.6-0.2-1.6-0.2l-1.5-0.7c0 0-2.4-0.5-3.5-0.4-1.2 0.2-3.5 1.4-4.2 2.4-0.7 1.1-2 1.5-3.1 1.6-1 0-3.4-1-3.8-1.9-0.4-1-1.5-1.3-1.5-1.3 0 0-2.3-2.5-3.7-3-0.9-0.4-1.2-0.2-1.5 0.2q-0.2 0.1-0.4 0.3c-0.7 0.5-4.1 0-4.4-0.1q-0.1 0-0.2-0.2c-0.2-0.3-0.4-0.8-1.7-1.4-1.2-0.7-1.7-0.6-2.5-0.4-0.4 0-0.8 0.1-1.3 0.1-1.3 0-2.3-0.8-3.1-1.5q-0.3-0.2-0.6-0.4c-0.8-0.6-2.9-0.1-2.9-0.1 0 0-0.8-0.1-1.7-0.8-1-0.7-2.5-0.4-2.5-0.4 0 0-3.7-0.6-3.9-1.3-0.1-0.6-0.9-1.6-0.9-1.6 0 0-1.5-2.2-2.3-3.1-0.3-0.4-0.5-0.7-0.8-0.9-0.4-0.3-0.7-0.6-0.9-1.1-0.2-0.7-0.9-0.4-0.9-0.4 0 0-1.4-0.9-2.5-1.4-1.1-0.5-3.1-1.2-3.1-1.2 0 0-2.3-2.8-3.9-3-1.6-0.2-1.5 0.5-1.5 0.5 0 0-1.7 0.1-2 0.2-0.3 0-1.8 0.5-2.7 0.9-0.9 0.4-1.3 0.7-2.1 2-0.8 1.2-3.1 0.9-3.8 0.8q-0.1-0.1-0.1-0.1c-0.1 0-0.4-0.2-0.9-0.5-0.4-0.3-1-0.7-1.5-0.9-0.8-0.4-1.4-0.2-2.3 0.2q-0.1 0-0.2 0c-0.9 0.4-3.1-0.2-3.1-0.2 0 0-2.5-1.4-3.2-0.3-0.7 1-2.3 1.2-4.2 1.4-1.4 0.1-2.1-0.7-2.8-1.6q-0.3-0.4-0.7-0.8c-1.1-1.2-4.1-1-4.1-1 0 0-2-0.7-2.6-0.6-0.6 0.1-0.7 0.9-0.7 0.9 0 0-1.8 0.1-2.7 0.2-0.9 0.1-1.4 0.8-1.4 0.8h-2.7c-0.6 0-0.6 0.1-1.2 0.4q-0.2 0.1-0.6 0.3c-1.1 0.7-3.2-0.3-3.2-0.3 0 0-1.3 0.7-2.1 0.7-0.8 0-3.1 0.1-3.1 0.1 0 0-1.4-1.6-1.5-0.7-0.1 0.9-2.7 1.4-2.7 1.4 0 0-1.3-0.2-2.3-0.4-1-0.2-1.3 0.6-1.3 0.6 0 0-2.8-0.7-3.7-1-0.8-0.2-3.6 0-3.6 0 0 0-2.5-0.4-2.7-0.5q-0.1 0-0.1-0.1c-0.3-0.1-1.1-0.5-1.8-0.5-0.7 0.1-1.4 0.7-2.2 1.2q-0.1 0.1-0.3 0.2c-0.5 0.5-1.2 0.4-1.9 0.4q-0.3-0.1-0.6-0.1c-0.4 0.1-0.9-0.1-1.4-0.4-0.4-0.2-0.8-0.4-1.2-0.5-1.1-0.3-3.2 0-4.1 0.5-0.4 0.2-0.8 0.3-1.3 0.3-0.4 0.1-0.9 0.2-1.5 0.4-1.2 0.5-2.1 0.9-2.7 2.4-0.7 1.7-3.5 1.2-3.5 1.2 0 0 1.3-0.6 0.4-1.1-0.9-0.5-4.3-2.5-4.3-2.5 0 0-0.6 0.1-1.5 0.7-0.9 0.7-5.4 1-5.4 1 0 0-0.7-0.9-1.9-0.5-0.8 0.3-1.6 0.4-2.5 0.6q-0.5 0-1 0.1c-0.6 0.2-0.8 0.6-1 1-0.2 0.6-0.5 1.2-1.6 1.6-1.4 0.5-1.8 0.1-2.2-0.4-0.2-0.1-0.4-0.3-0.7-0.5-1-0.5-2.3-0.7-3.2-0.5-0.4 0-0.9-0.2-1.5-0.4-0.7-0.3-1.5-0.7-2.6-0.7-1.4-0.1-2.9 0-4.2 0.1q-0.9 0-1.7 0.1c-1.7 0-5.4 0.4-6.3 0.7-0.9 0.4-2.3 1.9-2.3 1.9l-1.2 0.5c0 0-2 0.1-3.1 0-0.6-0.1-0.9 0.1-1.2 0.3-0.4 0.2-0.8 0.4-1.5 0.4-0.5 0-1.2-0.1-1.8-0.2-1.3-0.1-2.6-0.3-3.1 0.3v0.1c-0.6 0.9-1.3 2-3.8 2-1.5 0-2.7-0.7-3.8-1.4-0.7-0.4-1.4-0.8-2.3-1.1q-0.7-0.3-1.5-0.6c-1.6-0.6-3-1.2-3.9-0.5q-0.5 0.3-1 0.8c-1 0.9-2.2 2-3.5 1.9-0.9 0-1.3-0.1-1.5 0.1-0.2 0.2-0.2 0.5-0.4 1.1-0.2 1.2-2 2-3.8 2.9q-0.8 0.3-1.5 0.7c-1.8 1-2.3 1-3.3 1q-0.3 0-0.7 0c-1.6 0-3 1-3 1 0 0-2.4-0.3-3.2 0.4-0.5 0.4-1.1 0.4-2 0.5-0.5 0-1.2 0-2 0.1-1.4 0.2-2.6-0.2-3.7-0.6-0.6-0.2-1.1-0.3-1.6-0.4-0.7-0.1-1.3 0.4-1.9 0.9-0.5 0.4-1 0.8-1.7 1.1-0.9 0.5-1.4 0.3-1.8 0.1-0.4-0.1-0.7-0.2-1.3 0.1-1.2 0.7-3.2 1.4-4.4 0.2-0.6-0.7-1.8-1.1-2.8-1.4-0.7-0.2-1.4-0.4-1.4-0.7-0.2-0.6-1.3-1.3-1.8-1.7-0.6-0.3-4.2-1.8-4.9-1.8-0.8 0-1.7-0.3-2.6-0.9-0.8-0.6-2.2-0.5-3-0.4q0 0-0.1 0c-0.4 0-0.6-0.1-0.9-0.3-0.3-0.1-0.5-0.2-0.8-0.3-0.3 0-0.6 0.3-1.1 0.6-0.7 0.5-1.5 1-2.7 1.3-1 0.3-1.7-0.4-2.5-1-0.7-0.7-1.5-1.3-2.5-1-1.9 0.8-3.8 4.3-4.3 5.3-0.3 0.5-1.1 0.7-2.1 0.8-0.9 0.1-1.9 0.3-2.2 0.8-0.8 1.1-3.3 0.8-3.3 0.8 0 0-1.2-1.3-1.8-1.4-0.2-0.1-0.5-0.2-0.8-0.4-0.7-0.4-1.8-1-2.3-0.2-0.8 1-1.9 2-2.8 2.4-0.5 0.2-0.6 0.7-0.8 1.3-0.1 0.3-0.1 0.6-0.3 0.8-0.3 0.4-0.8 0.4-1.4 0.4-0.5 0-1 0-1.4 0.2-0.2 0.2-0.5 0.5-0.8 0.8z"/></svg>