<svg version="1.2" xmlns="http://www.w3.org/2000/svg" viewBox="0 0 312 216" width="312" height="216"><defs><clipPath clipPathUnits="userSpaceOnUse" id="cp1"><path d="m312 0.09h-312v214.93h312z"/></clipPath></defs><style>.a{fill:#b0191e}</style><g clip-path="url(#cp1)"><path class="a" d="m-141.3 168.6q-1.4 0-2.8-0.1c0.6 0.4 1.3 0.3 2 0.4 0.3 0 0.6-0.1 0.6 0.3 0 0.4 0.3 0.7 0.2 1.1q-1.3-0.1-2.6-0.2c-0.1 0-0.3-0.1-0.3 0.1 0 0.3 0.2 0.2 0.3 0.3 0.8 0 1.5 0.1 2.2 0.1 0.4 0 0.9 0 0.5 0.8-0.1 0.1 0 0.4 0.1 0.6 0.1 0.7 0.6 1.3 0.7 2 0.1 1.3 0.9 1.9 1.7 2.4 2.3 1.3 4.4 2.8 7 3.3 0.1 0.2 0.4 0.1 0.6 0.3q-0.1 0-0.2 0c-0.1 0-0.3 0-0.5 0-0.7 0.2-1.3 0.7-1.6 1.5-0.1 0.3-0.5 0.5-0.3 0.8 0.1 0.4 0.4 0.3 0.7 0.2q0.1 0.1 0.4 0.1c0.2 0.3 0.4 0.1 0.7 0.2 0.2 0.2 0.5 0.3 0.9 0.3 0.2 0.3 0.1 0.9 0.7 0.8q0.3 0.2 0.7 0.4c0.5 0.7 1.3 0.3 2 0.6q0 0 0.1 0.1c-0.2 0.4-0.1 0.8 0.2 1.2-0.6 0.2-1.2 0.1-1.8 0.1-0.4 0.1-0.7 0.2-0.9 0.5-0.8 0.5-1.8 0.5-2.8 1 0.5 0.1 0.9 0.2 1.2 0.2 0.4 0.3 0.7 0.7-0.1 0.8-0.1 0-0.3 0-0.4 0.2 0 0.2 0.2 0.3 0.3 0.4 0.2 0.1 0.3 0.1 0.5 0.2 0 0.1-0.3 0.2-0.1 0.2 0.7 0.2 1.3 0.7 2 0.6-0.1 0.6-0.7 1.2-0.3 2 0.1 0.2-0.2 0.5-0.5 0.5-0.2 0.1-0.3 0.1-0.2 0.3 0.3 0.4 0.2 0.7 0 1-0.2 0.2-0.1 0.4 0.2 0.4 0.5 0.1 0.4 0.8 0.6 1.1-0.5 0.2-0.4 1-0.9 1-0.5 0-0.4 0.4-0.5 0.6 0 0.2 0.1 0.4-0.1 0.4-0.6 0.3-0.1 0.6 0.1 0.8 0.2 0.3 0.5 0.3 0.8 0.2q0.7 0.2 1.3 0.4c0.1 0.2 0.5-0.1 0.5 0.4 0 0.2-0.2 0.4-0.5 0.5q-0.1 0-0.2 0.1c-0.3 0.3-0.5 0.6 0 0.8q0.5 0.3 1 0.5c-0.2 0.6-0.6 0.8-1.1 0.8-0.4-0.1-0.8 0.2-1.2 0.5-0.2 0-0.5 0.1-0.7 0.2-0.2 0.1-0.7 0-0.6 0.6 0 0.5 0.3 0.8 0.7 0.8 0.8 0.8 1.7 1.2 2.6 1.7q0.7 0.5 1.6 0.8c0.2 0 0.4 0.1 0.5 0.3 0.1 0.5 0.4 0.5 0.7 0.7 0.6 0.6 1.7 0.2 1.8 1.5 0 0 0.1 0.1 0.2 0.1 1 0 1.9 0.6 2.8 0.8 1.1 0.3 2.3 0.5 3.4 1 0.8 0.3 1.7 0.7 2.7 0.6 0.4 0.1 0.8 0.2 1.2 0.3 2 0.3 3.8 1.1 5.8 1.1 0.7 0.4 1.4 0.3 2.2 0.4 1.6 0.2 3.3 0.2 5 0.6 1.4 0.3 2.7 0.5 4.1 0.5 1.9 0.2 3.8 0.6 5.7 0.7 2.1 0.2 4.1 0.6 6.2 0.9 0.6 0 1.3-0.1 1.9 0.1 1.5 0.5 3 0.7 4.6 0.7 0.3 0.3 0.7 0.3 1.1 0.3 1.7 0.2 3.5 0.3 5.2 0.8 0.7 0.1 1.5 0.1 2.2 0.3 0.5 0.1 1.1 0.3 1.6 0.1q0-0.1 0.1 0c0 0 0.1 0 0.2 0.1 0.4 0.6 0.8 0.7 1.4 0.5 0.2-0.1 0.4 0 0.6-0.1q0.1 0 0.3 0 0.1 0 0.3 0c0.6-0.1 1.3 0.1 2 0.2 0.4 0.3 1 0.1 1.4 0.3 0.4 0.2 0.6 0.6 1.1 0.6 0.7 0 1.4 0 2 0.2 0.3 0.1 0.5-0.1 0.6-0.4 1.1 0 2 0.5 3.1 0.4 0.1 0 0.2 0 0.2 0.1 0.2 0.6 0.6 0.2 0.8 0 0 0.6-0.4 1-0.4 1.6 0.2 0.7-0.2 1.4-0.4 2.1-0.3 0.6-0.4 1.3-0.4 2q-0.2 0.1-0.4 0.1 0 0-0.1 0c-0.6-0.4-1.2-0.4-1.9-0.2-0.6 0.1-1-0.5-1.6-0.6-2-0.9-4.2-1.2-6.4-1.1-0.4 0-0.8 0-1.1-0.2-1-0.6-2.1-0.6-3.2-0.5-0.2-0.1-0.5-0.2-0.7-0.2-1.6-0.4-3.3-0.8-5-1-0.3-0.5-0.6-0.9-1.2-0.7-0.7 0-1.3-0.5-2 0-0.1 0-0.3 0-0.4-0.2-0.1-0.6-0.5-0.5-0.9-0.4-0.2 0.1-0.4 0.2-0.5 0-0.6-0.5-1.3-0.2-2-0.3-0.3 0-0.6-0.1-1-0.1-0.9 0.1-1.7-0.6-2.7-0.6q-1.3-0.3-2.6-0.5 0-0.1-0.1-0.1c-0.5-0.2-1-0.1-1.4-0.1-0.2 0-0.4 0.1-0.4 0.3 0 0.3 0.2 0.3 0.3 0.3 0.2 0.1 0.5 0 0.5 0.3 0.1 0.5 1.1 1.1 1.5 1.1 0.6 0 1.2-0.3 1.7 0.3 0.3 0.2 1.5 0.4 1.8 0.1 0 0 0.1-0.1 0.1-0.1-0.6-1 0.3-0.4 0.5-0.6q0.2 0.1 0.4 0.2c1 0.4 2 1.1 3.1 0.7 0.5-0.1 1 0.1 1.5 0.3-0.4 0.3-0.7 0-1.1 0.3 0.5 0 0.8 0 1.2 0 0.3 0 0.5 0 0.7 0.4 0.2 0.6 1.2 0.7 1.5 0.1 0.3-0.4 0.7-0.3 1-0.2 0.3 0.2-0.3 0.3 0 0.6 0.8-0.5 1.6 0.1 2.5 0.2 0.3 0 0.7 0.1 1.2 0.1-0.5 0.4-0.8 0.5-1.3 0.7 0.5 0.3 0.9 0.7 1.4 0.5 0.4-0.2 0.8-0.1 1.2-0.1 0.1 0.5 0.4 0.7 0.8 0.9 0.7 0.2 0.8-0.6 1.2-0.7 0.4-0.2 0.8-0.2 1.2-0.2 0.5 0 1 0.2 1.5-0.1q0.5 0 1.1 0.1c0.1 0.2 0.6 0.1 0.4 0.6-0.1 0.3-0.3 0.4-0.5 0.5 0.6 0.2 1.2 0.3 1.7 0.5 0.3 0 0.8 0.1 0.9-0.2 0.1-0.4-0.4-0.2-0.5-0.5-0.1-0.1 0-0.1 0-0.3 0.5 0.7 1.2-0.2 1.7 0.2 0.4 0.4 0.9 0.2 1.3 0.3 0.5 0.1 0.9 0.2 0.3 0.8-0.1 0-0.1 0.2-0.1 0.3 0.1 0.2 0.2 0 0.4 0 0.6 0 0.9-0.6 1.5-0.5 0.7 0.7 1.4 1.2 2.4 0.5 0.1-0.1 0.4-0.1 0.5 0.1 0 0.1 0 0.3-0.1 0.4-0.5 0.6 0.1 0.4 0.3 0.4 0.4 0.3 0.2 0.8 0.2 1.1-0.3 1 0.2 0.9 0.8 0.9q1.3-0.1 2.5 0.4c0.2 0.1 0.5 0.1 0.7 0.1 1.3 0.1 2.6-0.4 3.8 0.1 0.2 0.1 0.5 0 0.6-0.1 0.4-0.4 0.8-0.3 1.3-0.1 0.4 0.1 0.9 0.1 1.4 0 1 0.3 2 0 2.9 0.3 1 0.3 1.9 0 2.9-0.1 0.9 0.2 1.9 0.5 2.8 0.8 0.6 0.2 1.2-0.2 1.8-0.1 0.1 0.1 0.3 0.2 0.3 0.4 0.1 0.6 0 0.6 0.5 0.7q0.2 0.1 0.4 0.2c-0.1 0.5-0.2 0.8-0.7 0.4-0.3-0.3-1.6 0-2.1 0.6 1.1-0.2 2 0.3 3.1 0 0.8-0.1 1.7 0.2 2.6 0.3 0.2 0.1 0.7 0.2 0.6-0.1 0-0.5 0.3-0.3 0.4-0.3 0.3 0.1 0.6 0.1 0.9 0.2 1.4 0.3 2.8 0 4 1 0 0 0.1 0 0.2 0q0.9 0.1 1.9 0.2c2.2 0.5 4.4 0.9 6.7 1.3 1.7 0.3 3.4 0.9 5.2 0.8 0.2 0 0.5 0 0.6 0.2 0.7 0.8 1.6 0.8 2.6 0.9 0.7 0 1.4 0.1 2.1 0.4 0.8 0.3 1.5 0.3 2.3 0.4 1.9 0 3.8 0.1 5.7 0.1 4.7 0 9.5 0.3 14.2-0.2 1.9-0.3 3.9-0.3 5.9-0.5 2.9-0.5 5.8-1.1 8.7-1.6 0.3-0.1 0.7-0.2 0.9-0.1 0.9 0.3 1.7 0 2.6-0.1 1 0.2 2.1-0.4 3.2-0.2q0.7 0.2 1.3-0.1c0.4-0.2 0.8-0.3 1.2-0.2 1.7 0.1 3.3-0.1 5-0.2 0.8-0.1 1.6 0.1 2.4-0.1 1.3-0.2 2.4-0.6 3.7-0.6 0.7 0.1 1.5-0.2 2.2-0.4 0.9 0.1 1.7-0.3 2.6-0.5 0.4-0.1 0.8 0.2 1.1-0.2 0.7-0.6 1.5-0.9 2.4-1.1 1.7-0.4 3.2-0.9 4.9 0 0.4 0.2 0.8 0 1-0.5 0.2-0.5 0.6-0.6 1.1-0.6q1.3-0.1 2.5-0.4 1.8-0.2 3.6-0.3c0.7 0.1 1.3-0.3 2-0.3 0.2 0 0.3-0.1 0.2-0.4-0.1-0.5 0.2-0.7 0.6-0.9q0.6 0 1.2-0.1 0-0.1 0-0.2-0.6 0-1.2-0.1c-0.4-0.3-0.4-0.3-0.3-0.4 0.4-0.3 0.7-0.8 1.2-0.9 0.4 0 0.8 0 1.2-0.4 0.5 0 0.9 0 1.4-0.3 0.4 0 0.8 0.1 1.1 0.1 1.4 0.2 2.7 0 4-0.3h0.1c1.2 0.1 2.5 0.2 3.7 0.4 1.7 0.2 3.4-0.1 5.2 0.3 1.2 0.2 2.5 0.2 3.8 0.1 0.5-0.1 1-0.2 1.5-0.2 2.5 0.3 4.9 0.7 7.4 0.7 3 0.1 6-0.3 8.9-1.1 0.5 0.1 1.1 0.2 1.6 0.5 0.4 0.4 0.7 0.4 1.1 0.3 0.3 0 0.6-0.2 0.2-0.6-0.1-0.2-0.3-0.4-0.2-0.6 0.4-0.6 0-0.8-0.3-1 0.3-0.3 0.7-0.1 1-0.3q0.2 0.3 0.5 0.5c0.5 0.5 0.5 0.8-0.2 0.7-0.3 0-0.6 0-0.7 0.3 0 0.5 0.4 0.4 0.7 0.5q1 0.3 2.1 0.2c2.6 0.7 5.2 0 7.8-0.4-1.4-0.3-2.7-1-4.1-0.1-0.3-1 0.4-1.8 0.1-2.7-0.4 0-0.4 0.4-0.5 0.6-0.2 0.6-0.8 0.9-1.1 1.3-0.7 0.8-0.8-0.5-1.2-0.6-0.4-0.4 0.2-0.7 0.1-1-0.2-1.1-0.9-0.5-1.4-0.4-0.4-0.6-1-0.6-1.5-0.9q0.5 0.1 1 0.1c0.1 0 0.3 0 0.3-0.2 0.1-0.2-0.1-0.2-0.3-0.3q-0.4-0.1-0.9-0.1c0.8-0.7 1.8-1 2.8-0.8 1.5 0.2 3 0.5 4.6 0.4 0.1 0.9 1 1.2 1.4 1.8 0 0.9 0.7 1.2 1.2 1.3 1.1 0.1 1.4 1.1 2 1.8 0.2 0.6 0.5 0.8 1.2 0.9 0.9 0.2 1.8 0 2.7 0.1 1.8 0.2 3.7 0 5.5 0.3 0.4 0 0.8 0 0.8-0.7-0.1-0.6 0.4-0.5 0.6-0.6 0.6-0.3 0.3 0.3 0.4 0.5q0.2 0.4 0.6 0.3 0.3 0 0.7-0.1c0.1 0.2 0.3 0.4 0.6 0.5 0.6 0.4 1.1 0.1 1.5-0.2 0.3-0.2-0.2-0.5-0.3-0.8 0.2-0.5 1-0.6 1-1.3 0-1.2 0.7-1.3 1.5-1.5 0 0.6 0.5 0.4 0.7 0.7 0.3 0.7-0.6 0.3-0.6 0.7-0.1 0.3-0.3 0.6-0.1 0.7 0.6 0.2 0.4 0.2 0 0.5-0.2 0.1-0.5 0.7-0.3 1 0.1 0.5 0.7 0.4 0.9 0.2 0.7-0.5 1.6-0.7 2-1.6-0.1-0.3 0.3-0.6 0-0.9-0.6-0.7-0.1-1 0.4-1.2q0.1-0.1 0.2-0.1c0.4 0.1 0.7 0.2 1.1-0.2-0.3-0.2-0.7-0.1-0.8-0.4 0.8-0.7 1.5-0.2 2.1 0.5 0.5 0.7 1.4-0.5 1.9 0.4-0.9 0.1-1 2-2.3 1.3-0.1-0.1-0.2 0.1-0.2 0.2-0.7 0.5 0 0.8 0 1.3 0.2 0.8 0.5 0.7 0.9 0.3 0.8 0.9 1.3 0 2-0.4-0.3-0.3-0.8-0.6-0.6-1.2q0.1-0.1 0.1-0.3c0.3-0.5 1.5-0.6 0.5-1.5 0.1-0.2 0.1-0.5 0.3-0.6 0.1 0 0.2 0 0.3 0.1 0.6 0.6 1 0.9 1.2-0.3 0-0.1 0.4-0.2 0.6-0.2 0.2 0.1 0.4 0.2 0.7 0.2q0 0.1 0.1 0.3 0.1 0 0.1 0.1c-0.2 0-0.4 0.1-0.6 0.3 0.5 0 1.2 0.3 1.4 0.1 0.7-1 1.4-0.6 2.2-0.1 0.1 0.4 0.2 0.7 0.5 0.6q0.2 0.5 0.6 0.9-0.4 0.2-0.8 0.3c-0.4 0-0.7-0.2-1 0 0 0.8 0.7 0.2 0.9 0.7 0 0-0.1 0.2-0.2 0.2-0.2 0.2-0.5 0.4-0.2 0.8 0.1 0.2 0.3 0.5 0.6 0.4 0.3-0.2 0.4-0.6 0.4-0.9-0.2-0.3-0.1-0.5 0.1-0.7q0.2 0 0.4 0c-0.1 0.3-0.4 0.8 0.1 0.9 0.5 0.1 0.4-0.5 0.6-0.9 0.3-0.2 0.3-0.4 0.2-0.7q0.1-0.6 0.2-1.2c0.2-0.1 0.4-0.3 0.6-0.2 0.6 0.1 0.5-1.1 1.2-0.7 0.3 0.2 0.8 0 1 0.5 0.1 0.7 0.6 0.7 1 0.9q0 0 0 0.1c0.1-0.1 0.1 0 0.1-0.1q0.1 0.1 0.1 0.1c0 0.3 0.1 0.6-0.1 0.9-0.1-0.3-0.2-0.7-0.5-0.4-0.3 0.3-0.6 0.7-0.6 1.3 0 0.5 0.2 0.6 0.6 0.5 0.4-0.1 0.7-0.3 1.1-0.2 0.7 0.1 1-0.3 0.4-1 0.2 0 0.4-0.1 0.5-0.4 0.5 0.4 1.1 0 1.6 0q0.3 0.3 0.7 0.3 0 0 0 0c0.3 0.5 0.6 0.9 1.2 0.6 0.4-0.2 0.3-0.7 0.4-1.1 0 0 0 0.1 0.1 0.2 0.2 0.3 0.2 0.8 0.7 0.7 0.5-0.1 0.6-0.6 0.6-1-0.1-0.3 0-0.6 0-0.9q-0.5-0.1-0.9 0.4c-0.1 0.1-0.2 0.2-0.4 0.2 0.1-0.1-0.1-0.4-0.3-0.4-0.3 0-0.6 0-0.5 0.3 0.1 0.8-0.1 0.9-0.4 0.8q0.1-0.1 0.3-0.3c-0.4-0.4-0.8-0.4-1.3-0.3 0.1-0.1 0.1-0.1 0.1-0.1 0.2-0.7 0.5-1.3 0.8-2q0.6 0 1.3-0.3c0 0 0.1 0.1 0.2 0.1-0.2 0.7-0.5 1.5 0.7 1.2 0.1 0 0.3 0.2 0.4 0.4q0 0 0 0 0.1 0.2 0.3 0.4c-0.1 0.1-0.2 0.2-0.2 0.5 0.1 0.3 0.1 0.7 0.4 0.7 0.4 0.1 0.8-0.1 0.8-0.3 0.1-0.7 0.8-0.8 0.9-1.4q0-0.1 0.1-0.2c0.2 0.2 0.3 0.2 0.5 0.2 0.4 0.5 0.8 0.1 1.3 0.1q-0.1-0.1 0-0.2c0.4 0 0.8 0.1 1.2 0.1q0 0.4-0.1 0.8 0 0 0 0c-0.1 0 0 0.1 0 0.1-0.1 0.2-0.1 0.5 0.1 0.6 0.3 0.1 0.6 0.3 0.8-0.1 0.4-1.1 0.7-0.4 1.1 0 0.1 1.3 0.8 0.6 1.3 0.5 0.2 0.3 0.4 0.5 0.8 0.5 0.1 0.6 0.5 0.6 0.8 0.3 0.3-0.2 0.4-0.5 0.7-0.5 1 0.4 2 0.7 2.8 1.4q-0.2 0.3-0.5 0.5-0.2-0.1-0.4-0.3c-0.4-0.7-0.7-0.9-1 0.1q0 0.2-0.1 0.4c0 0.3-0.1 0.7 0.2 0.9 0.7 0.3 1.8-0.4 2-1.3 0.6-0.3-0.2-0.8 0.1-1.2 0.6 0.3 1.2 0.4 1.6-0.5-0.1 0.3-0.3 0.4-0.2 0.6 0.6 0.9 1.2 0.2 1.9 0.1 0.6-0.1 0.2-0.5 0-0.8-0.1-0.2 0-0.4 0.2-0.5 0.8-0.3 0.4-0.5-0.1-0.7-0.3-0.1-0.4-0.4-0.2-0.8 0.1-0.1-0.1-0.6 0.2-0.5q0.5 0.1 0.9 0c-0.1 0-0.1 0-0.2 0.1-0.3 0.7 0.6 0.3 0.7 0.7 0 0.2 0.1 0.3 0.2 0.3q0.2 0.1 0.4 0.2c-0.1 0.2 0 0.5 0.4 1 0.5 0.4-0.2 0.4-0.2 0.7-0.4 0.7-0.8 1.5 0.4 1.9 0.5 0.4 0.9 0.6 0.8-0.4 0-0.4 0-0.9 0.5-0.4 0.5 0.7 0.9 0.8 1.3-0.1 0.3-0.1 0.6-0.4 1 0 0.4 0.4 1 0.3 1.5 0 0.8-0.9 1.6-1.1 2.6-0.5 0.2 0.1 0.5 0.3 0.6 0.2 0.9-1 1.5-0.1 2.2 0.3 0.3 0.2 0.7 0.2 0.9 0.1 0.6-0.3 1.2-0.2 1.8-0.2-0.1 0.7-0.6 0.7-1.1 0.7-0.7 0-1 0.6-0.5 1.3 0.6 0.8 1.1 1.9 2.4 1.4 0.3 0.5 0.7 0.4 1.1 0.4 0.9 0 1.7 0 2.1 1.1 0.1 0.2 0.4 0.3 0.5 0.1 0.2-0.4 0.3-0.9 0.3-1.4 0-0.3-0.4-0.4-0.8-0.4-0.3 0.1-0.6-0.1-0.9-0.1-0.8 0.2-1.1-0.2-1.2-1q0-0.2 0-0.4 0.3-0.2 0.6-0.4c-0.1-0.2-0.4-0.2-0.6-0.4-0.3-0.3-0.9 0.2-1.1-0.4 0.6-0.4 1.4-0.1 2-0.5 0.8 0.2 1.6 0.8 2.5 0.6 0.7 0.5 0.1 1.2 0.2 1.9 0 0 0 0.2 0 0.2 1.1 0.2 2.2 0.8 3.3 0.7 0.5-0.1 0.7 0 0.9 0.5-0.6-0.1-1.1-0.2-1.5-0.2-0.3 0-0.8-0.3-0.9 0.1-0.2 0.4 0.3 0.6 0.5 0.9q-0.1 0.3-0.1 0.7c0 0.3-0.3 0.7 0.2 0.9 0.4 0.2 0.5-0.2 0.7-0.6 0-0.1 0.2-0.1 0.3-0.1 0.5 0.1 1 0.1 1.2-0.7 0.6 0.6 1.4 0 2.1 0.3 0.9 0.5 1.9 0.9 2.7 0.7 0.8-0.2 1.3 0 1.8 0.5q0 0.2 0 0.3c-0.1 0.2-0.3 0.4 0 0.5 0.4 0.2 0.8 0.2 1.2 0.2 0.8-0.2 1.6-0.1 2.3 0.3h0.1c0.6 0.3 1.2 0.7 1.9 0 0.3 0.1 0-1 0.6-0.4 0.1 0.5 0.4 1.1 0.8 0.4 0.4-0.8 1-0.6 1.5-0.6 0.4-0.1 0.8 0.2 1.1-0.1 0-0.6-0.7-0.4-0.7-0.9 0.5-0.3 0.9-0.8 1.6-0.5 0.4 0.2 0.9 0.2 1.3 0.2 0.5-0.1 0.2 1.1 0.9 0.7 0.4-0.3 0.1-0.9 0.4-1.2 0.5-0.3 2.4 0.4 2.7 1 0.3 0.7 0.7 1 1.3 1 0.6 0 1.2 0.1 1.4 0.8 0.3 0.8 0.6 0.4 1 0.2 1.4-0.9 1.6-0.9 2.4 0.4q0.3-0.4 0.6-0.8c0.4-0.6 2.3-0.4 2.4 0.3 0.2 1.1 0.8 1.3 1.6 1.3q0.1-0.1 0.3-0.1c1.1-0.3 1.3-0.6 0.8-1.1-0.7-0.7 0.8-0.9 0.2-1.6q-0.4-0.3-0.8-0.3c-0.4 0.1-0.8 0.2-1.2 0.3-0.1 0-0.2 0-0.3 0q0 0 0 0 0.1 0 0.3-0.1c0.6-0.1 1.3-0.1 0.8-1.2 0-0.1 0.2-0.2 0.3-0.2q0.2-0.1 0.5-0.2c0.3 0.1 0.6 0.2 0.8 0.2q0.1 0.1 0.1 0.2c1.1 0.1 2.1 0.4 2.9-0.5 0.2-0.3 0.6-0.3 0.8-0.2 1.1 0.5 2.2 0.8 3.4 0.7 0.5 0 0.8 0.3 0.5 0.9q-0.1 0.1-0.1 0.3-0.4 0.4-0.8 0.7-0.2 0-0.4 0c-0.4 0-0.4-0.3-0.5-0.6-0.6-1.5-2.2-1.9-3.2-0.8-0.3 0.4-0.5 0.4-0.8 0.3-0.4-0.1-0.9-0.2-0.9 0.5 0 0.5 0 1.2 0.8 1 0.3-0.5 0.5-0.8 1-0.2 0.5 0.4 1.1 0.6 1.7 0.6 0.6 0 1 0.4 1.7 0.6-0.4 0.2-0.6 0.3-0.6 0.2-0.5-0.5-1.3-0.2-1.8-0.5-0.3-0.1-0.6 0-0.7 0.4 0 0.5 0.8 1.5 1.3 1.2 0.6-0.3 1.1 0 1.6 0.1 0.8 0.2 1.6 0.2 1.9-0.9 0.7 0.9 1.4 0.8 2.3 0.5 0.3 0 0-0.9 0.5-0.4 0.1 0.4 0.6 0.7 1.5 0.9 0.6-0.1 1.1-0.5 1.7 0.1 0.2 0.3 0.7 0.1 0.7-0.2-0.2-1 0.5-0.9 0.9-1 0.2 0.3 0.6 0.3 0.8 0.3q1.8 0 3.6 0c0.3 0 0.7-0.1 0.9 0.4-0.2 0.2-0.6 0.1-0.8 0.2-0.3 0.1-1-0.2-1 0.5 0.1 0.6 0.7 0.5 1 0.4 1.8-0.4 3.5 1.4 5.3 0.4 0.1 0 0.1 0 0.1 0 0.6 0.5 1.2 0.4 1.9 0.4 1.1 0.3 2.2-0.1 3.4 0.1 1.9 0.2 3.9 0.3 5.9 0.7 0.5 0.1 1 0.1 1.6 0 0.6-0.1 1.2-0.5 1.8-0.2 1.1 0.5 2.4 0 3.5 0.5 0.3 0.1 0.8-0.1 0.5-0.4-1.3-1.2-0.6-2 0.3-2.7 0.8 0.2 1.6 0.3 2.4 0.2 0.6 0.3 1.4 0.2 2.1 0.2-0.1 0.4-0.6 0.6-0.3 1 0.3 0.4 0.7 0.2 1.1 0 0.2-0.1 0.4-0.1 0.6-0.2q0.1 0.1 0.2 0.2c0.2 0.4 0.5 0.8 0.8 1 0.5 0.5 0.5 0.8-0.2 0.7-0.3 0-0.6 0-0.6 0.3 0 0.4 0.3 0.4 0.6 0.4q1.1 0.4 2.2 0.3c2.6 0.7 5.2 0 7.8-0.4-1.4-0.3-2.8-1-4.1-0.1-0.4-1 0.3-1.8 0.1-2.7-0.5 0-0.5 0.4-0.5 0.6-0.3 0.6-0.8 0.9-1.2 1.3-0.7 0.8-0.8-0.5-1.2-0.6-0.3-0.4 0.3-0.7 0.2-1-0.3-1.1-1-0.5-1.5-0.4-0.4-0.6-1-0.6-1.5-1q-0.1 0-0.2 0c0 0-0.1-0.1 0-0.1 0.8-1 2-1.3 3.2-1.2 1.5 0.3 3 0.6 4.5 0.5 0.2 0.9 1 1.2 1.5 1.8-0.1 0.9 0.6 1.2 1.1 1.3 1.1 0.1 1.4 1.1 2.1 1.8 0.2 0.6 0.5 0.8 1.1 0.9 1 0.2 1.9 0 2.8 0.1 1.8 0.2 3.6 0 5.4 0.3 0.5 0.1 0.9 0 0.8-0.7 0-0.6 0.4-0.5 0.7-0.6 0.5-0.3 0.3 0.3 0.4 0.5q0.1 0.4 0.6 0.3 0.3-0.1 0.6-0.1c0.2 0.2 0.4 0.4 0.7 0.4 0.5 0.5 1 0.1 1.4-0.1 0.3-0.2-0.2-0.5-0.2-0.8 0.2-0.5 1-0.6 1-1.3 0-1.2 0.7-1.3 1.4-1.5 0 0.6 0.6 0.4 0.8 0.7 0.2 0.7-0.7 0.3-0.7 0.7-0.1 0.2-0.3 0.6 0 0.7 0.6 0.2 0.3 0.2 0 0.4-0.3 0.2-0.6 0.8-0.4 1.1 0.2 0.5 0.7 0.4 1 0.2 0.6-0.5 1.5-0.7 1.9-1.6-0.1-0.3 0.4-0.6 0.1-0.9-0.7-0.7-0.2-1 0.4-1.2q0.1-0.1 0.2-0.1c0.3 0.1 0.7 0.1 1.1-0.2-0.3-0.2-0.7-0.1-0.8-0.4 0.8-0.7 1.4-0.2 2 0.5 0.6 0.7 1.4-0.5 2 0.4-1 0.1-1.1 2-2.4 1.3 0-0.1-0.1 0.1-0.2 0.2-0.7 0.5 0 0.8 0.1 1.3 0.2 0.8 0.5 0.7 0.9 0.3 0.8 0.9 1.3 0 1.9-0.4-0.3-0.4-0.8-0.6-0.6-1.2q0.1-0.2 0.2-0.3c0.3-0.5 1.4-0.6 0.4-1.5 0.1-0.2 0.1-0.5 0.3-0.6 0.1-0.1 0.2 0 0.4 0.1 0.5 0.6 1 0.9 1.2-0.3 0-0.1 0.3-0.2 0.5-0.2 0.5 0.3 1 0 1.6 0.3-0.4 0.3-0.9 0.2-1.2 0.6 0.5 0 1.2 0.3 1.3 0.1 0.9-1.1 1.7-0.4 2.5 0.1 0.2 0.5 0.5 0.9 0.9 1.4q-0.4 0.1-0.9 0.2c-0.3 0-0.7-0.2-1 0 0 0.8 0.7 0.3 1 0.7-0.1 0.1-0.1 0.2-0.2 0.2-0.2 0.2-0.5 0.4-0.2 0.8 0.1 0.2 0.2 0.5 0.5 0.4 0.4-0.1 0.5-0.6 0.4-0.9-0.1-0.3 0-0.5 0.2-0.7q0.2 0 0.4 0c-0.2 0.3-0.5 0.8 0.1 0.9 0.5 0.1 0.4-0.5 0.5-0.9 0.3-0.1 0.4-0.4 0.2-0.7q0.2-0.6 0.3-1.2c0.2-0.1 0.4-0.3 0.6-0.2 0.6 0.2 0.5-1.1 1.1-0.7 0.3 0.2 0.8 0 1.1 0.5 0 0.8 0.8 0.7 1.2 1-0.1 0.3 0.1 0.7-0.2 0.9 0-0.3-0.2-0.7-0.4-0.4-0.3 0.3-0.7 0.7-0.7 1.3 0 0.5 0.3 0.6 0.6 0.5 0.4-0.1 0.8-0.3 1.2-0.2 0.6 0.1 1-0.3 0.4-0.9 0.2-0.1 0.4-0.2 0.4-0.5 0.6 0.4 1.1 0 1.7 0 0.5 0.5 1 0.4 1.5-0.2-0.5-0.5-1-0.4-1.5-0.3q-1.1 0-2.1 0-0.1-0.1-0.3-0.2c-0.1-0.7-0.7-0.8-1-1.2-0.1-0.8 0.6-0.6 0.9-0.6 1.6-0.4 3.2 0.4 4.8-0.3 0.1-0.1 0.2 0 0.2 0.1-0.2 0.7-0.4 1.4 0.7 1.1 0.2 0 0.4 0.2 0.4 0.5q0 0 0 0c0.3 0.3 0.6 0.8 1 0.3 0.3-0.3 0.3-0.9-0.2-1.3-0.2-0.1-0.6-0.2-0.5-0.6 0.2-0.1 0.1-0.3 0.2-0.4 0.3-0.2-0.5-0.8 0.2-0.8 0.5 0 0.7 0.1 0.7 0.6-0.1 0.5 0.2 0.3 0.4 0.4 1 0.4 1.8-0.3 2.8-0.4 0.6 0 1.5 0.3 2.1-0.5 0.4 0 0.7 0.3 0.7 0.8 0.1 0.2 0.1 0.4 0.3 0.4 0.2 0 0.3-0.2 0.3-0.4 0-1.1 0.6-1 1.2-0.7 0.5 0.2 0.8 0.2 1.2 0 0.4-0.3 0.8-0.7 1.4-0.2 0.1 0.1 0.4-0.1 0.4-0.4q0-0.3-0.3-0.4c-1.2-0.2-2.4-0.4-3.6-0.5-0.3-0.1-1.1 0.1-0.9 0.4 0.3 0.8-0.2 0.6-0.5 0.7 0-0.8-0.9-1.1-1.1-0.9-0.6 0.7-0.9 0.6-1.7 0.2-1-0.4-2.1-0.3-3.3-0.4 0.4-0.6 0.8-1.2-0.2-1.6-0.5-0.1-0.3-0.5-0.2-0.8 0.2-0.4 0.5-0.3 0.8-0.1 0.2 0.1 0.2 0.7 0.6 0.7 0.1 0.1 0.3 0.2 0.3 0.3 0.2 0.3 0.3 0.5 0.6 0.4 0.2 0 0.2-0.3 0.2-0.5-0.1-0.4-0.4-0.4-0.7-0.2 0 0-0.1-0.2-0.2-0.2 0.1-0.8 1.2-0.5 1.2-1.3 0-0.9 0.8-0.5 0.8-0.3 0.5 1.2 1.1 0.7 1.8 0.4 0.5-0.1 1.1 0.1 0.9 0.6-0.1 0.4-0.2 1.3-1 1.1-0.3 0-0.6 0.1-0.5 0.5 0.1 0.5 0.5 0.6 0.7 0.5 1-0.6 2-0.2 2.9-0.5 0.4-0.1 1.1 0 1-0.6-0.1-0.6-0.6-0.4-1-0.3-0.3 0.1-0.6 0.2-0.8 0.2-0.4 0-0.9 0.2-1.1-0.4 1.1-0.6 2.3-0.1 3.5-0.3 0.9-0.1 1.6 0.1 1.2-1.4 0.3 0.6 0.6 0.7 1 0.4 0.3-0.3-0.1-0.5-0.1-0.8-0.1-0.4-0.3-1.1-0.1-1.1 0.8 0.2 1.4-1 2.2-0.6 0.2 0.1 0.5 0 0.5 0.3 0 0.2-0.3 0.3-0.4 0.4-0.5 0.3-1.3 0.4-0.7 1.4 0.2 0.3 1.9 0.7 2.2 0.5 0.2-0.2 0.1-0.4 0.1-0.6q0-0.5-0.1-1c0.7-0.1 1.5-0.1 2.2-0.3 0.4-0.1 1 0.5 1.3-0.1 0.2-0.5-0.8-0.4-0.8-0.9 0.3-0.3 0.5-0.3 0.7-0.2 0.7 0.3 1.3 0.1 2 0 1-0.2 2-0.5 2.9 0.4 0.4 0.3 1 0.9 1.6 0.8 1-0.3 2.2 0.3 3-0.9 0.2-0.2 0.5 0.1 0.7 0.1 1-0.1 1.9-0.3 2.6-1.3-0.2-0.3 0-1-0.6-0.9-0.9 0.1-1.8-0.2-2.7 0.2-0.5 0.3-1.1 0.4-1.8 0.3 0.4-0.2 0.9-0.3 0.8-0.7 0-0.5-0.5-0.4-0.9-0.5-1.1-0.1-2.3 0.4-3.4 0-0.3-0.1-0.5 0.2-0.5 0.5-0.1 0.6-0.5 0.6-0.9 0.7-1 0-1.9-0.5-2.8-0.5-0.4 0.1-0.4-0.2-0.3-0.6 0.4-0.7 1.1-1 2-0.6-0.2 0.2-0.5 0.3-0.5 0.7 0 0.2 0 0.5 0.3 0.6 0.2 0 0.5 0.1 0.5-0.2 0-0.5 0.4-0.8 0.6-1.2q0.1-0.1 0.3-0.3c2.4-0.2 4.8-0.1 7.2-0.1 0.4 0 0.6 0.3 0.6 0.7 0 0.4 0.2 0.6 0.5 0.7 0.3 0 0.5-0.1 0.6-0.4q0 0 0.1 0c0 0.7 0.3 0.7 1.1 0.7 0.4-0.2 0.8-0.4 0.9 0.3 0.1 0.4-1.1 0.7-0.1 1.2 0.1 0.3 0.1 0.7-0.2 0.9-0.5 0.3-0.7 0.9-0.3 1.2 0.7 0.6 1.5 0.2 2.2-0.3-0.8 0.1-1-0.4-1-1.1 0.1-1 0.8-0.5 1.3-0.7 0.5 0.1 0.8-0.5 1.2-0.5 0.8-0.4 0.7 0.3 0.7 0.8 0 0.8 0.2 1.2 1 0.7 0.2 0.5 0.2 1.4 1 0.4 0.2-0.3 0.7-0.5 0.9-1 0.2-0.4 0.6-0.7 1-0.5 1.1 0.4 1.8 0.2 2.2-1 0.9-0.4 1.9 0.1 2.5-1-0.1-0.2-0.5 0-0.5-0.4 0.2-0.3 0.7-0.6 0.3-1.3-0.4 0.6-1 0.6-1.6 0.6-0.4-0.4-0.8-0.8-1.4-0.3q0 0.2 0 0.3c-1.2 0.2-0.8-0.6-0.7-1.2 0-0.6 0.3-0.6 0.7-0.6 0.7-0.1 1 0.7 1.7 0.5 1.5-0.6 3.1-0.5 4.6-1.1 0.6-0.2 1.2 0.3 1.8-0.1 0.4 0.1 0.6-0.3 0.9-0.4 0.8-0.1 0.7-0.1 0.8-0.8-0.9-0.4-1.7 0.4-2.5 0.3-0.1 0-0.3-0.1-0.5-0.1-0.3 0.3-0.6 0.3-0.8 0-0.4-0.8-0.7-1.5 0.4-1.8 0 0 0-0.1 0-0.1 0.9-1.1 2.1 0.2 3.1-0.6 0 0 0.1 0.1 0.1 0.1 0.2 0.1 0.4 0 0.4-0.2 0-1.1 0.7-0.9 1.2-0.7 0.6 0.2 1.1-0.8 1.6-0.2 0.5 1.2 1.8 0.1 2.3 1.2 0.1 0.1 0.3-0.1 0.4-0.3 0.1-1 0.6-0.6 1-0.3-0.2 0.5-0.1 0.6 0.3 0.5 0.9-0.1 1-1.3 1.8-1.6 0.4 0.1 0.9-0.1 1.2 0.2 0.3 0.3 0.4 0.2 0.5-0.2 0.5-0.6 1.4-0.2 1.9-0.9q0.6 0 1.1 0.1c-0.2 1-1 0.8-1.5 1.1-0.3 0.2 0.1 1.3-0.9 0.8 0.4 0.4 0.8 0.4 1.1 0.8-0.1 0.4-0.2 0.5-0.5 0.2-0.6-0.1-1.2 0-1.7-0.8 0 0.5 0 0.9-0.2 1.1-0.4 0.6-0.1 0.9 0.5 0.9 0.2 0 0.4-0.3 0.6-0.2 0.9 0.9 1.8-0.2 2.7-0.2 0.4-0.2 0.8 0 1.1 0.1 0.5 0 0.9-0.1 0.9-0.7 0.4-0.3-0.3-0.8 0.1-1 0.6-0.2 0.7-0.8 0.9-1.3 0.4-0.9 1.8-1.8 2.4-1.3 0.5 0.5 0.7 0.1 0.9-0.1 0.3-0.2 0.5-0.5 0.7-0.5 0.5-0.2 0.9-0.2 1.3-0.2 0 0.4 0 0.9-0.1 1.3-0.1 0.2-0.5 0.3-0.3 0.7 0.1 0.2 0.4 0.1 0.6 0.1 0.3-0.1 0.5-0.2 0.4-0.6 0-0.5 0.1-1 0.7-0.6 0.2 0.2 0.3 0 0.2-0.2-0.2-0.6 0.1-0.5 0.4-0.4 0.9 0.3 1.7 0.1 2.3-0.3 0.5-0.4 1.2 0.4 1.4-0.4 0.7-0.3 1.4-0.5 2.2-0.5 1.3-0.3 2.6-0.6 3.9-0.8 0.7-0.2 1-0.4 1-1.2q2.3-0.6 4.5-1.1c0.2 0 0.4 0 0.4 0 0.7 0.8 1.2 0.6 1.7-0.2 0.2-0.4 0.7-0.7 1.3-0.7 0.2 0 0.6 0.1 0.7-0.5q0.3-0.1 0.6-0.2c0.5 0.1 1-0.2 1.3-0.7-0.7 0.4-1.5-0.1-2.2 0.4q-1 0.2-2 0.3c-0.6-0.3-0.9 0.4-1.4 0.4q0-0.1 0-0.2c-0.1-0.9 0.7-1.8 1.6-1.9 1.3-0.1 1.3-0.1 2.1-1.2-0.4 0.1-0.9 0.2-1.3 0.3-1 0.4-2.1 0.4-3 1-0.4 0.1-0.9 0.1-1.3 0.3-0.9 0.2-1.9 0.3-2.9 0.5-0.8 0.1-1-0.4-0.7-1.2 0.6-0.2 1.1-0.4 1.5-0.6 0.7-0.2 1.5 0.1 2-0.6 0.3-0.1 0.5-0.2 0.8-0.2 2 0 3.8-1.1 5.7-1.4 0.7-0.1 1.4-0.3 2.1-0.8q0.6-0.1 1.3-0.2c0.8-0.1 1.7 0 2.3-0.7 0.2-0.2 0.5-0.4 0.4-0.8-0.2-0.2-0.5-0.2-0.8-0.1-1 0.2-1.9 0.4-2.8 0.8-1.2 0.6-2.6 0.5-3.7 1.4-1.7-0.1-3.2 1.1-4.9 1-0.1 0-0.3 0.2-0.4 0.3-1.3 0.6-2.8 0.7-4.2 1.1-1.5 0.4-3 1.1-4.6 0.5-0.3-0.2-0.6 0.1-0.8 0.4-1.4 0-2.9-0.1-4.3 0.6-0.9 0.1-1.8-0.3-2.6 0.4q-1 0.2-2.1 0.5c-1.5-0.1-3.1 0.2-4.5-0.8q0.3-0.3 0.5-0.5c1.5-0.2 2.9-0.4 4.4-0.7 1.1-0.3 2.3-0.8 3.6-0.6 0.6 0.1-0.2-0.8 0.3-1.1 0 0 0.3-0.1-0.1-0.2-0.6 0-1.2-0.3-1.8-0.1-0.8 0.2-1.6 0.2-2.4 0.4-1.6 0.4-3.2-0.5-4.7 0.4-0.2 0.1-0.5 0.1-0.7-0.3 1-0.4 1.9-0.9 2.9-1 0.9 0 1.6-0.1 2.2-0.8 0.5 0.1 1.1 0.1 1.6 0.1 1.3-0.1 2.6-0.2 3.9-0.6 1.8-0.5 3.6-0.5 5.4-1 0.9-0.2 1-0.3 1.4-1.2-1.3 0.8-2.6 0.6-3.8 0.8-2.6 0.4-5.1 1.4-7.8 1.3-0.3 0-0.6 0.1-0.9 0.1q-0.2-0.1-0.3-0.1c-0.2-0.1-0.3-0.3-0.3-0.8 1.3-0.3 2.6 0.3 4.1-0.5 0.8-0.4 2.1-0.2 3.1-0.4 2.7-0.3 5.2-0.9 7.9-1.3 1-0.5 2.2-0.2 3.3-0.8-0.1-0.3-0.9-0.2-0.3-0.8 0.3-0.3 0.7-0.2 1-0.2 1 0.9 1.2 0.9 2-0.4 0.1-0.1 0.2-0.2 0.3-0.1 0.4 0.2 1-0.1 1.4 0.3 1.3 0.5 1.7-0.6 2.1-1.6 0.7 0 1.4 0 2-0.5 0.3-0.2 0.6-0.2 0.7 0.2 0.2 0.9 0.2 0.9 0.9 0.4 1 0.4 1.9-0.3 2.8-0.5 0.3-0.1 0.4-0.5 0.2-0.9 0-0.3-0.3-0.3-0.5-0.5q0 0 0.1 0c0.7-0.5 1.5-0.6 2.3-0.7 0.7 0 1.4-0.1 2-0.7 1 1.1 1 1 1.8-0.2 0.1-0.2 0.5-0.5 0.6-0.2 0.5 1.1 0.9 0.1 1.5 0-0.6-0.2-1-0.3-0.9-0.9q0.4-0.3 0.8-0.5c0.7 0 1.2-0.1 1.8-0.9-0.8 0.3-1.4-0.1-1.9 0.5q-0.3 0-0.5 0c0-0.4 0.1-0.9 0.3-1.2 0.9-0.2 1.4-1.2 2.3-1.4 0.7-0.2 1.3-0.4 1.6-1.2 0.4-0.2 0.6 0.8 0.9 0.4 0.7-0.9 1.7-0.8 2.5-1.5 0.5 0.5 1 0.4 1.5-0.1 0.6-0.7 1.5-0.6 2.3-0.6 0.5 0 0.8 0.1 1.1-0.5 0.1-0.5 0.4-0.6 0.5 0.1 0 0.2 0.1 0.2 0.3 0 0.7-0.7 1.6-0.8 2.5-1 0.4-0.2 1.2-0.3 1.5-1 0.3-0.1 0.5-0.7 0.9-0.5 1.7 1 2.8-1 4.2-1.3 0.6-0.1 1.3-0.7 2-0.9 0.4-0.1 0.7-0.1 0.9-0.5 0.9-0.6 2-0.6 2.8-1.4 0.4-0.1 1-0.1 1-0.7 0-0.7-0.6-0.3-0.9-0.4-0.9-0.4-1.6 0.4-2.4 0.5-2.3 0.5-4.5 1.6-6.8 2.4-1.3 0.4-2.6 1-3.9 1-0.6 0-1 0-1.3 0.6q-0.8 0.5-1.8 0.8c-1.5 0.5-3.1 0.5-4.4 1.4-1.3-0.3-2.2 0.6-3.4 0.9q-0.9 0-1.8 0c-0.3 0-0.9 0.5-1-0.1-0.1-0.6 0.6-0.6 1-0.8 0.2-0.1 0.5 0 0.7-0.1 0.4-0.2 1-0.2 1.1-0.9 0.9-0.4 1.8-0.6 2.6-0.8 0.9-0.3 2.1-0.5 2.5-1.4 0.7-1.8 2.3-2.5 3.1-4.1 0.5-1 1.6-1.2 2.1-2.1 2-1.9 3.8-3.9 5.5-6 0.4-0.2 0.6-0.7 0.7-1 0.3-2 1.9-3.4 2.1-5.5 0-0.4 0.1-0.9 0.5-1.1 0.2 0 0.3-0.2 0.4-0.4 0.8-1.6 0-3-0.5-4.3-0.4-1.1-0.9-2.3-1.9-2.9-1-1.4-2.4-2.4-3.9-2.9-0.9-0.4-1.8-0.8-2.5-1.4-1.7-1.4-3.6-2-5.5-2.9-1.8-0.7-3.6-1.5-5.3-3.1 2.3-0.3 4.3-1.4 6.6-1.1-0.2 0.3-0.8 0.1-0.6 0.6 0.1 0.3 0.6 0.1 0.9 0.1 0.4 0 0.4-0.3 0.3-0.7 1.4 0.1 2.7 0.3 4.1-0.1 0.6-0.2 1.1 0.1 1.6 0.2 0.4 0.1 0.7 0.3 0.6 1 0 0.2-0.2 0.7 0.3 1.1 1 0.9 2.1 0.5 3.1 0.8 3.5 0.7 6.8-0.3 9.9-1.7 0.5-0.2 0.9-0.1 1.4-0.1 0.9 0 1.8 1 3 0-1.1-0.2-1.9-0.4-2.8-0.6-0.3-0.1-0.7-0.1-0.9-0.4 0.4-0.4-0.2-0.9 0-1.2 0.3-0.3 0.8-0.2 1.2 0 0.5 0.3 0.9 0.1 1.4-0.3-1-0.3-1.8-0.6-2.6-0.7-1 0-0.9-0.9-0.9-1.5 0.1-0.8 0.7-0.5 1.1-0.5 1.4 0 2.8 0 4.2 0.1-1-0.6-2.1-0.4-3.1-0.5-0.4 0-0.8 0.1-0.8-0.4 0-0.6-0.4-1.1-0.4-1.8q2 0.2 3.9 0.4c0.2 0 0.4 0.1 0.5-0.2 0-0.5-0.3-0.3-0.5-0.4q-1.6-0.1-3.2-0.1c-0.7-0.1-1.3-0.1-0.8-1.2 0.2-0.2 0-0.6-0.1-0.9-0.2-1.1-0.9-2-1-2.9-0.2-1.9-1.4-2.9-2.6-3.6-3.3-1.9-6.5-4.1-10.3-4.8-0.2-0.4-0.6-0.2-0.8-0.5q0.1 0 0.2 0c0.2 0 0.4 0 0.7 0 1.1-0.3 1.9-1 2.5-2.3 0.1-0.4 0.6-0.6 0.4-1.2-0.2-0.4-0.7-0.3-1-0.2q-0.3-0.1-0.6-0.1c-0.3-0.4-0.7-0.2-1.1-0.3-0.4-0.3-0.8-0.5-1.3-0.4-0.3-0.4-0.2-1.3-1-1.2q-0.5-0.3-1.1-0.6c-0.7-1.1-2-0.5-2.9-0.9q-0.1 0-0.2-0.1c0.3-0.6 0.1-1.2-0.3-1.7 0.9-0.4 1.8-0.3 2.7-0.3 0.5 0 1-0.2 1.2-0.7 1.3-0.7 2.7-0.6 4.3-1.4-0.8-0.3-1.3-0.3-1.9-0.3-0.5-0.5-0.9-1 0.3-1.2 0.2 0 0.4-0.1 0.5-0.3 0-0.4-0.3-0.4-0.5-0.6-0.2-0.1-0.4-0.2-0.6-0.3-0.1-0.1 0.4-0.3 0.1-0.4-1-0.2-1.9-1-2.9-0.8 0-1 0.9-1.8 0.4-3-0.2-0.2 0.2-0.7 0.7-0.8 0.2 0 0.5-0.1 0.2-0.4-0.4-0.5-0.2-0.9 0.1-1.4 0.2-0.3 0.1-0.6-0.2-0.6-0.9-0.2-0.7-1.1-1-1.7 0.7-0.3 0.6-1.4 1.3-1.5 0.7 0 0.6-0.5 0.7-0.8 0.1-0.2-0.2-0.5 0.1-0.7 1-0.4 0.3-0.7 0-1-0.4-0.4-0.8-0.5-1.3-0.4q-1-0.3-1.9-0.5c-0.2-0.4-0.8 0-0.8-0.6 0.1-0.4 0.4-0.7 0.8-0.8q0.2 0 0.3-0.1c0.5-0.5 0.8-0.9-0.1-1.3-0.4-0.2-0.9-0.5-1.4-0.7q0.6-1.2 1.6-1.1c0.7 0 1.3-0.3 1.8-0.8 0.4-0.1 0.7-0.1 1-0.3 0.4-0.2 1.1 0 1-0.9-0.1-0.6-0.4-1.2-1.1-1.2-1.1-1.2-2.4-1.8-3.8-2.4-0.7-0.6-1.5-1-2.3-1.2-0.3-0.1-0.7-0.1-0.8-0.5-0.1-0.7-0.7-0.7-1-1.1-0.9-0.7-2.6-0.2-2.8-2.1 0 0-0.2-0.2-0.2-0.2-1.5 0.1-2.7-0.9-4.2-1.2-1.6-0.4-3.3-0.8-5-1.4-1.2-0.5-2.5-1.2-3.9-1-0.7-0.1-1.3-0.3-1.9-0.4-2.9-0.4-5.6-1.6-8.5-1.7q-0.3-0.1-0.6-0.2 0.5-0.2 0.9-0.5c0.8-0.2 1.2-0.7 1.6-1.3 0.4 0.2 0.9 0.3 1.3 0.4 0.5 0.4 1 0.4 1.6 0.6 0.9 0.5 1.9 0.8 3 0.9 0.9 0.7 1.9 0.8 3 1.1 0.8 0.2 1.6 1.1 2.6 0.5 0.1-0.1 0.3 0 0.4 0.1 1 0.3 1.9 0.6 2.8 0.8 0.4 0.1 1 0.3 1.1-0.4 0-0.5-0.5-0.9-0.9-1-0.5-0.1-1-0.1-1.5 0-1.3 0-2.3-0.5-2.9-1.9-0.2-0.5-0.7-0.6-1.2-0.6-0.8 0-1.7 0.1-2.5-0.3-0.3-1.5-1.3-1.2-2.2-1.2q-0.3 0-0.6 0.1c-1.2 0.1-1.5-0.2-1.7-1.5q-0.1-0.3-0.3-0.3c-0.6 0-1.1-0.3-1.6-0.2q-0.4 0-0.7 0.1c0.5-0.4 1.1-0.6 1.7-0.7 0.8 0 1.3-0.5 1.5-1.2 0.3-0.7 0.6-1 1.3-1.1 0.2 0 0.4 0 0.4-0.3 0-0.5 0.2-0.8 0.3-1.2 0.9-0.5 1.5-1.5 2.4-2.1 0.2-0.1 0.2-0.3 0.3-0.5 0.4-0.6 0.6-1.5 1.3-1.7 1.6-0.4 2.5-1.9 3.7-2.8 0.4-0.4 0.8-0.8 1.3-1 0.5-0.2 0.9-0.7 0.7-1.3-0.2-1 0.2-1.7 0.8-2.3 0.2-0.3 0.4-0.6 0.7-0.9 0.3-0.5 0.6-1.2 1.3-1.4 0.4 0.1 0.6-0.4 1-0.5 0.8-0.3 1.5-0.9 2.2-1.5 0.2-0.2 0-1.2 0.7-0.6 0.1 0 0.1-0.2 0.2-0.2 0.9-0.3 0.9-1.3 1.4-2 0.3-0.5 0.1-0.7-0.3-0.7-0.2 0-0.3 0-0.5 0.1-0.8 0-1.3-0.3-1.5-1 0-0.1-0.2-0.2-0.2-0.2-0.4 0.2-0.6-0.1-0.9-0.3-0.5-0.4-0.6-0.9-0.7-1.3-0.3-0.9-0.8-1.6-1.5-2.1 0-0.3-0.1-0.4-0.5-0.4-0.3-0.1-0.6 0-0.6-0.3 0.1-0.6-0.2-1.3 0.1-1.8 0.5-1-0.3-1.4-0.7-1.9-0.3-0.4-0.3 0.4-0.6 0.5q-0.1 0-0.2 0c-0.7 0-1.2 0.4-1.8 0.5-0.6 0.2-1.3 0.3-1.9 0.3-0.6-0.1-1.2-0.4-1.8 0-0.1 0.1-0.4 0.2-0.4-0.1-0.1-0.5-0.3-1-0.3-1.4 0-0.7-0.2-1-0.8-1-0.3-0.3-0.8-0.2-0.9-0.8 0-0.1-0.2-0.1-0.3 0-0.7 0.8-1.3 0.4-1.8-0.2-0.2-0.5-0.2-0.9-0.2-1.4 0-0.9-0.7-1.3-1.7-0.9 0.6 0 0.8 0.5 1.1 0.6-0.3 0.6-0.6 0.3-1 0.2-0.2 0-0.4-1-0.7 0 0 0.2-0.2 0.1-0.3 0.1-0.2 0-0.1-0.2-0.1-0.3-0.1-1.1-0.4-1.4-1.4-1.4-0.4-0.1-0.8-0.1-1.2-0.4-0.3-0.4-1-0.3-1.1 0.1-0.3 0.6-0.6 0.6-1 0.7-0.1-0.3-0.5-0.4-0.4-0.7 0.2-0.8-0.4-0.6-0.7-0.6-0.1 0-0.3 0.3-0.4 0.2-0.3-0.8-0.7-0.2-1-0.1-0.3 0.1-0.7 0.2-0.8 0.6-0.1 0.1 0 0.2 0.1 0.2 0.4 0.2 0.7 0.1 1 0 0.1-0.1 0.2-0.2 0.2-0.3 0.2-0.1 0.4-0.1 0.5 0.1 0.2 0.4 0.7 0.5 0.9 1 0 0.2 0.1 0.4-0.2 0.4-0.3-0.4-0.8-0.1-1.1-0.4-0.4-0.3-1-0.1-1.5-0.3 0-0.1-0.1-0.2-0.2-0.1-0.1 0.5-0.5 0.3-0.8 0.2-0.3-0.1-0.6-0.1-0.9-0.3-0.4-0.1-0.3-0.5-0.1-0.6 0.5-0.2 0.8-0.5 0.9-1 0-0.2 0.3-0.1 0.2-0.3 0-0.2-0.2-0.2-0.4-0.2-0.6 0.4-1.3 0.1-1.9 0.2-0.3-0.3-0.5-0.1-0.7 0.2q0.4-1-0.5-0.7c-0.1-0.1-0.2-0.2-0.2-0.4q-0.2-0.2-0.3-0.5c-0.1-0.2-0.2-0.3-0.4-0.1-0.5 0.6-1 0.2-1.6 0.1-0.1-0.8-0.3-0.8-0.7-0.5 0 0.4-0.2 0.5-0.5 0.5-0.4-0.1-0.8 0-1.1 0.3-0.3 0.1-0.2 0.4-0.2 0.6q0 0.2 0 0.4c-0.3 0.1-0.2 0.5-0.3 0.7q-0.6 0.2-1.2-0.2 0 0-0.1-0.1c0-0.1 0-0.3 0.1-0.4 0.6-0.6 0.6-0.6-0.2-0.9-0.2-0.1-0.3-0.2-0.5-0.2q0.2-0.2 0.3-0.3c0.3-0.3 0.2-0.5 0.1-0.8-0.5 0.4-0.6-0.5-1-0.4-0.3 0.1-0.5 0.5-0.9 0.3-0.1-0.1-0.3-0.5-0.4 0-0.2 0.5-0.4 0.9-0.6 1.4-0.1 0.1-0.1 0.3-0.3 0.3-0.6 0-1.2 0.6-1.7-0.2 0.7-0.6-0.1-0.8-0.3-1.1 0.1-0.2 0.6-0.1 0.4-0.6 0-0.2 0-0.5-0.2-0.5-0.2-0.1-0.5 0.1-0.6 0.2 0 0.5-0.5 0.6-0.5 1-0.1 0.1-0.3 0.3-0.4 0-0.3-0.4-0.6-0.1-0.9-0.1 0.1 0.4-0.5 0.5-0.4 1 0 0 0 0 0.1 0.1 0.3 0.2 1-0.1 1.1 0.7-0.2 0.1-0.3 0-0.4 0-1.3-0.5-1.5-0.9-1.2-2.3 0.1-0.2 0.1-0.4-0.1-0.5-0.1-0.1-0.4-0.2-0.5 0.1-0.3 0.7-0.5 0.2-0.7 0-0.1-0.9-0.5-0.4-0.9-0.4-0.2-0.1-0.3-0.3-0.6-0.3-0.1-0.4-0.3-0.4-0.5-0.2-0.2 0.2-0.3 0.3-0.5 0.3-0.6-0.3-1.3-0.4-1.8-0.9q0.1-0.2 0.3-0.4 0.1 0.1 0.3 0.2c0.2 0.5 0.4 0.6 0.7 0q0-0.1 0-0.3c0-0.2 0.1-0.5-0.1-0.6-0.5-0.2-1.2 0.2-1.4 0.9-0.4 0.2 0.2 0.5 0 0.8-0.4-0.3-0.8-0.3-1.1 0.3 0-0.2 0.2-0.3 0.1-0.4-0.4-0.6-0.8-0.2-1.2-0.1-0.5 0-0.2 0.3-0.1 0.5 0.1 0.2 0 0.3-0.1 0.4-0.6 0.2-0.3 0.3 0 0.4 0.3 0.2 0.3 0.3 0.2 0.6-0.1 0.1 0 0.4-0.1 0.3-0.6-0.1-1 0.2-1.5 0.3-0.2 0.1-0.3-0.1-0.4-0.3-0.1-0.2 0-0.4 0.1-0.5 0.5-0.4 0.5-0.5 0.1-1-0.4-0.3 0.2-0.3 0.1-0.5 0.3-0.5 0.5-1-0.2-1.3-0.4-0.3-0.7-0.3-0.6 0.3 0 0.3 0 0.6-0.3 0.2-0.4-0.4-0.7-0.5-0.9 0.1-0.2 0.1-0.4 0.3-0.7 0-0.3-0.3-0.7-0.2-1 0-0.6 0.7-1.1 0.8-1.8 0.3-0.1 0-0.3-0.1-0.4-0.1-0.6 0.7-1 0.1-1.5-0.2-0.2-0.1-0.4-0.1-0.6 0-0.4 0.2-0.8 0.1-1.2 0.1 0.1-0.5 0.4-0.5 0.7-0.5 0.5 0 0.7-0.4 0.4-0.8-0.4-0.6-0.8-1.4-1.7-1-0.1-0.3-0.4-0.3-0.7-0.3-0.6 0.1-1.2 0.1-1.4-0.7-0.1-0.2-0.3-0.2-0.4-0.1-0.1 0.3-0.2 0.6-0.2 0.9 0.1 0.2 0.3 0.4 0.6 0.3 0.2 0 0.4 0.1 0.6 0.1 0.5-0.2 0.7 0.2 0.8 0.6q0 0.2 0 0.4-0.2 0.1-0.4 0.2c0.1 0.2 0.3 0.2 0.4 0.3 0.2 0.2 0.6-0.1 0.7 0.3-0.4 0.2-0.9 0-1.3 0.3-0.6-0.1-1.1-0.5-1.7-0.4-0.4-0.4-0.1-0.8-0.1-1.3 0 0 0-0.1-0.1-0.1-0.7-0.2-1.4-0.6-2.2-0.5-0.3 0-0.4 0-0.6-0.3 0.4 0 0.7 0.1 1 0.1 0.2 0 0.5 0.2 0.6-0.1 0.1-0.3-0.2-0.4-0.3-0.6q0-0.2 0-0.4c0-0.3 0.2-0.5-0.1-0.7-0.3-0.1-0.3 0.2-0.4 0.4-0.1 0.1-0.2 0.1-0.2 0.1-0.4-0.1-0.8-0.1-0.9 0.4-0.4-0.3-0.9 0.1-1.4-0.2-0.6-0.3-1.3-0.6-1.8-0.4-0.6 0.1-0.9-0.1-1.2-0.4q0-0.1 0-0.2c0-0.1 0.2-0.2-0.1-0.3q-0.4-0.2-0.8-0.2c-0.5 0.2-1 0.1-1.5-0.2-0.5-0.2-0.9-0.4-1.4 0-0.2 0 0 0.7-0.4 0.3-0.1-0.3-0.2-0.7-0.5-0.2-0.3 0.5-0.7 0.4-1.1 0.4-0.2 0-0.5-0.1-0.7 0.1 0 0.3 0.5 0.2 0.5 0.6-0.4 0.1-0.6 0.5-1.1 0.3-0.2-0.2-0.6-0.2-0.8-0.1-0.4 0-0.2-0.8-0.7-0.5-0.3 0.2 0 0.6-0.3 0.8-0.3 0.2-1.6-0.3-1.8-0.7-0.2-0.5-0.5-0.7-0.9-0.7-0.4 0-0.8-0.1-0.9-0.6-0.2-0.5-0.4-0.2-0.7-0.1-0.9 0.6-1.1 0.6-1.7-0.3q-0.1 0.3-0.3 0.6c-0.3 0.4-1.6 0.3-1.7-0.2-0.1-0.8-0.5-0.9-1-0.9q-0.2 0.1-0.3 0.1c-0.7 0.2-0.9 0.4-0.5 0.7 0.5 0.5-0.6 0.7-0.1 1.1 0.1 0.1 0.3 0.2 0.5 0.2 0.3 0 0.5-0.1 0.8-0.2q0.1 0 0.2 0 0 0 0 0c0 0-0.1 0.1-0.1 0.1-0.5 0-0.9 0.1-0.7 0.8 0.1 0 0 0.1-0.1 0.1q-0.2 0.1-0.4 0.2c-0.1-0.1-0.3-0.2-0.5-0.2q0 0-0.1-0.1c-0.7-0.1-1.4-0.3-2 0.3-0.1 0.2-0.3 0.2-0.5 0.1-0.7-0.3-1.5-0.5-2.3-0.4-0.3 0-0.5-0.2-0.3-0.6q0-0.1 0.1-0.2 0.2-0.3 0.5-0.5 0.1 0 0.3 0c0.2 0 0.2 0.2 0.3 0.4 0.4 1 1.5 1.3 2.2 0.5q0.2-0.3 0.5-0.2c0.3 0.1 0.6 0.2 0.6-0.3 0-0.3 0-0.8-0.5-0.7-0.2 0.3-0.3 0.6-0.7 0.2-0.3-0.4-0.7-0.5-1.1-0.5-0.4 0-0.7-0.2-1.2-0.4 0.3-0.1 0.4-0.1 0.4-0.1 0.4 0.4 0.9 0.1 1.2 0.3 0.2 0.2 0.4 0.1 0.5-0.2 0-0.4-0.6-1-0.9-0.9-0.4 0.3-0.7 0.1-1.1 0-0.5-0.2-1-0.2-1.2 0.6-0.5-0.6-1-0.5-1.6-0.4-0.2 0.1 0.1 0.6-0.3 0.3-0.1-0.3-0.4-0.4-1.1-0.6-0.4 0.1-0.7 0.4-1.1-0.1-0.1-0.2-0.5 0-0.4 0.2 0 0.7-0.4 0.6-0.7 0.6-0.1-0.2-0.4-0.1-0.5-0.1q-1.2-0.1-2.4-0.1c-0.2 0-0.5 0.1-0.6-0.2 0.1-0.2 0.3-0.1 0.5-0.1 0.2-0.1 0.6 0.1 0.6-0.4 0-0.4-0.4-0.3-0.6-0.2-1.2 0.2-2.4-1-3.6-0.3q-0.1 0-0.1 0c-0.4-0.4-0.8-0.3-1.2-0.3-0.8-0.2-1.5 0.1-2.3 0-1.3-0.2-2.7-0.2-4-0.5-0.4-0.1-0.7-0.1-1.1 0-0.4 0-0.8 0.3-1.2 0.1-0.8-0.3-1.6 0-2.4-0.3-0.2-0.1-0.5 0.1-0.3 0.3 0.8 0.8 0.4 1.3-0.2 1.8-0.5-0.2-1.1-0.2-1.6-0.1-0.5-0.3-1-0.2-1.4-0.2 0-0.3 0.4-0.4 0.1-0.7-0.2-0.3-0.4-0.1-0.7 0q-0.2 0.1-0.4 0.2-0.1-0.1-0.2-0.2-0.2-0.4-0.5-0.7c-0.3-0.3-0.3-0.5 0.2-0.5 0.1 0 0.4 0 0.4-0.2 0-0.3-0.2-0.2-0.4-0.2q-0.7-0.3-1.5-0.2c-1.8-0.5-3.5 0-5.3 0.3 1 0.2 1.9 0.7 2.8 0.1 0.2 0.6-0.2 1.2-0.1 1.7-0.2-0.1-0.4-0.1-0.7-0.1-0.2-0.1-0.4 0-0.4 0.3 0 0.5 0.4 0.6 0.8 0.6 0.2-0.1 0.5-0.1 0.5-0.5q-0.1-0.2-0.1-0.2c0.2-0.1 0.2-0.3 0.3-0.4 0.1-0.4 0.5-0.6 0.7-0.9 0.5-0.5 0.6 0.3 0.9 0.4 0.2 0.3-0.2 0.5-0.2 0.7 0.2 0.7 0.7 0.3 1 0.2 0.2 0.4 0.6 0.5 0.9 0.6q-0.2 0.1-0.5 0.4c0.1 0.1 0.2 0.1 0.3 0.2-0.5 0.3-1.1 0.4-1.6 0.4-1-0.2-2.1-0.4-3.1-0.4-0.1-0.6-0.7-0.7-1-1.2 0-0.5-0.4-0.8-0.8-0.8-0.7-0.1-0.9-0.8-1.4-1.3-0.1-0.4-0.3-0.5-0.7-0.6-0.7-0.1-1.3 0-1.9-0.1-1.2-0.1-2.5 0-3.7-0.1-0.3-0.1-0.6 0-0.5 0.4 0 0.4-0.3 0.3-0.5 0.4-0.3 0.2-0.2-0.2-0.2-0.3q-0.2-0.3-0.4-0.2-0.3 0-0.5 0.1c-0.1-0.2-0.2-0.3-0.4-0.4-0.4-0.2-0.7 0-1 0.1-0.2 0.2 0.1 0.4 0.2 0.6-0.1 0.3-0.7 0.4-0.7 0.9 0 0 0 0.1 0 0.1q-0.5 0-0.9-0.3c0-0.1 0-0.2-0.1-0.2q-0.1-0.1-0.2-0.1 0 0 0-0.1c0 0 0.1-0.1 0.2-0.2 0.2-0.1 0.4-0.4 0.3-0.7-0.1-0.3-0.5-0.2-0.7-0.1-0.4 0.4-1 0.5-1.3 1.1 0 0.2-0.2 0.4-0.1 0.6 0.5 0.5 0.2 0.7-0.2 0.8q-0.1 0.1-0.2 0.1c-0.1-0.1-0.3-0.1-0.5 0-0.7-0.2-1.4-0.4-2.1-0.4 0.1-0.1 0.2-0.2 0.3-0.3 0.3 0 0.6 0.1 0.8-0.2 0-0.1 0-0.2 0-0.2 0.1 0 0.1 0 0.2 0 0 0 0.1-0.1 0.2-0.1 0.4-0.4 0-0.6-0.1-0.9-0.1-0.6-0.3-0.5-0.6-0.3-0.1 0-0.1 0-0.2-0.1 0-0.3 0.3-0.7-0.1-0.9-0.5-0.2-0.6 0.3-0.7 0.6-0.1 0.1-0.2 0.1-0.3 0.1-0.6-0.1-1.1-0.1-1.2 0.7-0.1-0.1-0.1 0-0.2-0.1 0.1-0.1 0.1-0.3-0.2-0.2-0.2 0-0.3 0-0.4 0.1-0.4 0-0.9 0.1-1.3-0.1-0.9-0.4-1.9-0.9-2.7-0.7-0.9 0.2-1.3 0-1.8-0.5q0-0.2 0-0.3c0.1-0.2 0.3-0.4 0-0.5-0.4-0.2-0.8-0.2-1.2-0.2-0.8 0.2-1.6 0.1-2.3-0.3h-0.1c-0.6-0.3-1.2-0.7-1.9 0-0.3-0.1 0 1-0.6 0.4-0.1-0.5-0.4-1.1-0.8-0.4-0.4 0.8-1 0.6-1.6 0.6-0.3 0-0.7-0.2-1 0.1 0 0.6 0.6 0.4 0.7 0.9-0.5 0.3-0.9 0.8-1.6 0.5-0.4-0.2-0.9-0.2-1.3-0.2-0.5 0.1-0.2-1.1-0.9-0.7-0.5 0.3-0.1 1-0.4 1.2-0.5 0.3-2.5-0.4-2.7-1-0.3-0.7-0.7-0.9-1.3-1-0.6 0-1.2-0.1-1.4-0.8-0.3-0.8-0.6-0.4-1-0.2-1.4 0.9-1.6 0.9-2.4-0.4q-0.3 0.4-0.6 0.8c-0.4 0.6-2.3 0.4-2.4-0.3-0.2-1.1-0.8-1.3-1.6-1.3q-0.1 0.1-0.3 0.1c-1.1 0.3-1.3 0.6-0.8 1.1 0.8 0.7-0.8 0.9-0.2 1.6q0.4 0.3 0.8 0.3c0.4-0.1 0.8-0.2 1.2-0.3 0.1 0 0.2 0 0.3 0q0 0 0 0-0.1 0.1-0.3 0.1c-0.6 0.1-1.3 0.2-0.8 1.2 0 0.1-0.2 0.2-0.3 0.2q-0.2 0.1-0.5 0.2c-0.3-0.1-0.6-0.2-0.8-0.2q-0.1-0.1-0.1-0.2c-1-0.1-2.1-0.4-2.9 0.5-0.2 0.3-0.6 0.3-0.8 0.2-1.1-0.5-2.3-0.8-3.4-0.7-0.5 0-0.8-0.3-0.5-0.9q0.1-0.1 0.1-0.3 0.4-0.4 0.8-0.7 0.2 0 0.4 0c0.4 0 0.4 0.3 0.5 0.6 0.6 1.5 2.2 1.9 3.2 0.8 0.3-0.4 0.5-0.4 0.8-0.3 0.4 0.1 0.9 0.2 0.9-0.5 0-0.5 0-1.2-0.8-1-0.2 0.5-0.5 0.9-1 0.2-0.4-0.4-1.1-0.6-1.7-0.6-0.6 0-1-0.4-1.7-0.6 0.4-0.2 0.6-0.3 0.6-0.2 0.5 0.5 1.3 0.2 1.8 0.5 0.3 0.1 0.6 0 0.6-0.4 0.1-0.5-0.8-1.5-1.2-1.2-0.6 0.3-1.1 0-1.7-0.1-0.8-0.2-1.5-0.2-1.8 0.9-0.7-0.9-1.5-0.8-2.3-0.5-0.3 0.1 0 0.9-0.5 0.5-0.1-0.5-0.6-0.8-1.6-0.9-0.5 0-1 0.4-1.6-0.2-0.2-0.3-0.7-0.1-0.7 0.3 0.1 0.9-0.5 0.8-1 0.9-0.2-0.3-0.5-0.3-0.7-0.3q-1.8 0-3.6 0c-0.3 0-0.7 0.1-0.9-0.4 0.2-0.2 0.5-0.1 0.8-0.2 0.3-0.1 1 0.2 0.9-0.5 0-0.6-0.6-0.5-0.9-0.4-1.8 0.4-3.5-1.4-5.4-0.4 0 0.1 0 0-0.1 0-0.5-0.5-1.2-0.3-1.8-0.4-1.1-0.3-2.2 0.1-3.4 0-1.9-0.3-3.9-0.4-5.9-0.8-0.5-0.1-1.1-0.1-1.6 0-0.6 0.1-1.2 0.5-1.8 0.2-1.1-0.5-2.4 0-3.5-0.5-0.3-0.1-0.8 0.1-0.5 0.4 1.2 1.2 0.5 2-0.4 2.8-0.7-0.3-1.5-0.4-2.3-0.3-0.6-0.3-1.4-0.2-2.1-0.2 0.1-0.4 0.6-0.6 0.3-1-0.3-0.4-0.7-0.2-1.1 0-0.2 0.1-0.4 0.1-0.7 0.2q-0.1-0.1-0.1-0.2c-0.2-0.4-0.5-0.8-0.8-1-0.5-0.5-0.5-0.7 0.2-0.7 0.2 0 0.6 0 0.6-0.3 0-0.4-0.4-0.4-0.6-0.4q-1.1-0.4-2.2-0.3c-2.6-0.7-5.2 0-7.8 0.4 1.4 0.3 2.7 1 4.1 0.1 0.4 1-0.4 1.8-0.1 2.7 0.5 0 0.4-0.4 0.5-0.6 0.3-0.6 0.8-0.9 1.2-1.3 0.7-0.8 0.7 0.5 1.2 0.6 0.3 0.4-0.3 0.7-0.2 1 0.3 1.1 1 0.5 1.5 0.4 0.3 0.6 1 0.6 1.5 1q0.1 0 0.2 0c0 0 0 0.1 0 0.1-0.9 1-2 1.3-3.2 1.2-1.5-0.2-3-0.6-4.5-0.5-0.2-0.9-1-1.2-1.5-1.8 0-0.8-0.6-1.2-1.1-1.3-1.1-0.1-1.4-1.1-2.1-1.8-0.2-0.6-0.5-0.8-1.1-0.9-1-0.2-1.9 0-2.8-0.1-1.8-0.2-3.6 0-5.4-0.3-0.5 0-0.9 0-0.8 0.7 0 0.6-0.4 0.5-0.7 0.6-0.5 0.3-0.3-0.3-0.4-0.5q-0.2-0.4-0.6-0.3-0.3 0-0.6 0.1c-0.2-0.2-0.4-0.4-0.7-0.5-0.5-0.4-1-0.1-1.5 0.2-0.2 0.2 0.3 0.5 0.3 0.7-0.2 0.6-1 0.7-1 1.4 0 1.2-0.7 1.3-1.5 1.5 0.1-0.6-0.5-0.4-0.7-0.7-0.2-0.7 0.7-0.3 0.7-0.8 0.1-0.2 0.2-0.5 0-0.6-0.6-0.2-0.3-0.2 0-0.5 0.3-0.2 0.5-0.7 0.4-1.1-0.2-0.4-0.7-0.3-1-0.1-0.6 0.5-1.5 0.7-1.9 1.6 0.1 0.3-0.4 0.5-0.1 0.9 0.7 0.7 0.2 1-0.4 1.2q-0.1 0-0.2 0c-0.3 0-0.7-0.1-1.1 0.3 0.3 0.1 0.7 0 0.8 0.4-0.8 0.6-1.5 0.2-2.1-0.5-0.5-0.7-1.3 0.5-1.9-0.4 0.9-0.2 1-2 2.3-1.3 0.1 0 0.2-0.1 0.3-0.2 0.7-0.5 0-0.9-0.1-1.3-0.2-0.8-0.5-0.7-0.9-0.4-0.8-0.8-1.3 0-1.9 0.4 0.3 0.4 0.7 0.7 0.6 1.3q-0.1 0.1-0.2 0.3c-0.3 0.4-1.4 0.6-0.4 1.5-0.1 0.1-0.2 0.5-0.3 0.6-0.1 0-0.2 0-0.4-0.2-0.5-0.5-1-0.8-1.2 0.4 0 0.1-0.3 0.1-0.5 0.2-0.5-0.4-1 0-1.6-0.3 0.4-0.3 0.9-0.2 1.2-0.6-0.5-0.1-1.2-0.4-1.3-0.2-0.9 1.2-1.7 0.5-2.5 0-0.2-0.5-0.5-1-0.9-1.4q0.4-0.1 0.9-0.2c0.3 0 0.7 0.1 1-0.1 0-0.7-0.7-0.2-1-0.6 0.1-0.1 0.1-0.2 0.2-0.3 0.2-0.2 0.5-0.3 0.3-0.7-0.2-0.2-0.3-0.5-0.6-0.4-0.4 0.1-0.5 0.5-0.4 0.8 0.1 0.4 0 0.6-0.2 0.8q-0.2 0-0.4 0c0.2-0.4 0.5-0.8 0-0.9-0.6-0.2-0.5 0.5-0.6 0.8-0.3 0.2-0.3 0.5-0.2 0.8q-0.2 0.6-0.3 1.1c-0.2 0.2-0.4 0.4-0.6 0.3-0.6-0.2-0.5 1-1.1 0.7-0.3-0.3-0.8 0-1-0.5-0.1-0.8-0.9-0.7-1.3-1 0.1-0.4-0.1-0.7 0.2-0.9 0 0.3 0.2 0.7 0.4 0.4 0.3-0.3 0.7-0.8 0.7-1.3 0-0.6-0.3-0.6-0.6-0.5-0.4 0.1-0.7 0.2-1.2 0.2-0.6-0.1-1 0.3-0.3 0.9-0.3 0.1-0.4 0.2-0.5 0.5-0.6-0.5-1.1 0-1.7-0.1-0.5-0.5-1-0.4-1.5 0.2 0.5 0.6 1 0.4 1.5 0.3q1.1 0.1 2.1 0.1 0.1 0.1 0.3 0.2c0.1 0.6 0.7 0.8 1 1.2 0.1 0.8-0.6 0.6-0.9 0.6-1.6 0.3-3.2-0.4-4.8 0.3-0.1 0-0.2-0.1-0.2-0.1 0.2-0.7 0.4-1.4-0.7-1.2-0.2 0-0.4-0.2-0.4-0.4q0 0 0 0c-0.3-0.4-0.6-0.9-1-0.4-0.3 0.4-0.3 1 0.2 1.4 0.3 0.1 0.6 0.1 0.5 0.6-0.2 0.1-0.1 0.3-0.2 0.3-0.3 0.3 0.5 0.8-0.2 0.9-0.5 0-0.7-0.1-0.7-0.6 0.1-0.5-0.2-0.4-0.4-0.4-1-0.4-1.8 0.2-2.8 0.3-0.6 0.1-1.5-0.3-2.1 0.6-0.4-0.1-0.7-0.3-0.7-0.8-0.1-0.2-0.1-0.4-0.3-0.4-0.2 0-0.3 0.2-0.3 0.4 0 1.1-0.6 1-1.2 0.7-0.5-0.2-0.8-0.2-1.2 0-0.4 0.3-0.8 0.6-1.4 0.2-0.1-0.1-0.4 0-0.4 0.3q0 0.4 0.3 0.4c1.2 0.2 2.4 0.5 3.6 0.6 0.3 0 1.1-0.1 0.9-0.4-0.3-0.8 0.2-0.6 0.5-0.8 0.1 0.8 0.9 1.2 1.1 1 0.6-0.7 1-0.6 1.7-0.3 1 0.4 2.1 0.3 3.3 0.4-0.4 0.6-0.8 1.3 0.2 1.6 0.5 0.2 0.3 0.6 0.2 0.9-0.2 0.3-0.5 0.3-0.8 0.1-0.2-0.2-0.2-0.7-0.6-0.7-0.1-0.1-0.3-0.2-0.3-0.4-0.2-0.2-0.3-0.5-0.6-0.4-0.2 0.1-0.2 0.3-0.2 0.5 0.1 0.4 0.4 0.4 0.7 0.3 0 0 0.1 0.1 0.2 0.2-0.1 0.8-1.1 0.4-1.2 1.2 0 1-0.7 0.6-0.8 0.4-0.5-1.2-1.1-0.7-1.8-0.5-0.5 0.2-1.1 0-0.9-0.5 0.1-0.4 0.2-1.3 1-1.2 0.3 0.1 0.6 0 0.5-0.5 0-0.4-0.5-0.5-0.7-0.4-1 0.6-2 0.1-2.9 0.4-0.4 0.2-1.1 0.1-1 0.6 0.1 0.7 0.6 0.4 1 0.3 0.3 0 0.6-0.2 0.8-0.2 0.4 0 0.9-0.2 1.1 0.4-1.1 0.6-2.3 0.2-3.5 0.4-0.9 0.1-1.6-0.1-1.2 1.4-0.3-0.6-0.6-0.7-1-0.4-0.3 0.2 0.1 0.5 0.1 0.8 0.1 0.4 0.3 1 0.1 1-0.8-0.1-1.4 1-2.2 0.6-0.2 0-0.5 0.1-0.5-0.2 0-0.2 0.3-0.3 0.4-0.5 0.5-0.2 1.3-0.3 0.7-1.3-0.1-0.3-1.9-0.8-2.1-0.5-0.3 0.1-0.2 0.3-0.2 0.6q0 0.4 0.1 0.9c-0.7 0.1-1.5 0.2-2.2 0.3-0.4 0.1-1-0.4-1.3 0.2-0.2 0.5 0.8 0.3 0.8 0.9-0.2 0.2-0.5 0.3-0.7 0.2-0.7-0.3-1.3-0.1-2 0-0.9 0.1-2 0.4-2.9-0.4-0.4-0.3-1-0.9-1.6-0.8-1 0.2-2.2-0.3-3 0.8-0.2 0.3-0.5 0-0.7 0-1 0-1.9 0.3-2.6 1.2 0.2 0.4 0 1 0.6 0.9 0.9-0.1 1.8 0.3 2.7-0.2 0.5-0.3 1.1-0.3 1.8-0.3-0.4 0.3-0.9 0.3-0.8 0.8 0 0.5 0.5 0.4 0.9 0.4 1.1 0.2 2.3-0.3 3.5 0.1 0.2 0.1 0.4-0.2 0.4-0.5 0.1-0.7 0.5-0.7 0.9-0.7 1-0.1 1.9 0.5 2.9 0.4 0.3 0 0.3 0.3 0.2 0.6-0.4 0.8-1 1-1.9 0.7 0.1-0.2 0.4-0.4 0.4-0.7 0-0.2 0-0.5-0.3-0.6-0.2-0.1-0.5-0.1-0.5 0.1 0 0.5-0.4 0.9-0.6 1.3q-0.1 0.1-0.3 0.2c-2.4 0.2-4.8 0.2-7.1 0.2-0.5 0-0.7-0.3-0.7-0.8 0-0.3-0.1-0.6-0.5-0.6-0.3 0-0.5 0.1-0.6 0.4q0 0-0.1 0c0-0.7-0.2-0.8-1.1-0.8-0.4 0.2-0.8 0.5-0.9-0.3-0.1-0.3 1.1-0.7 0.1-1.1 0-0.4 0-0.7 0.2-1 0.5-0.2 0.7-0.9 0.3-1.2-0.7-0.5-1.5-0.2-2.2 0.3 0.8 0 1 0.4 1 1.2-0.1 1-0.8 0.5-1.3 0.7-0.5-0.2-0.8 0.5-1.2 0.5-0.8 0.3-0.7-0.3-0.7-0.8 0-0.9-0.2-1.2-1-0.7-0.1-0.6-0.1-1.4-1-0.4-0.2 0.3-0.7 0.5-0.9 1-0.2 0.4-0.6 0.6-1 0.5-1.1-0.5-1.8-0.3-2.3 0.9-0.8 0.4-1.9-0.1-2.5 1 0.2 0.2 0.5 0.1 0.6 0.4-0.2 0.4-0.7 0.7-0.3 1.3 0.4-0.5 1-0.5 1.5-0.6 0.5 0.5 0.9 0.8 1.5 0.3q0-0.1 0-0.2c1.1-0.2 0.8 0.6 0.7 1.2 0 0.6-0.3 0.5-0.7 0.6-0.7 0.1-1.1-0.8-1.7-0.5-1.2 0.4-2.4 0.5-3.5 0.7-2.4-0.4-4.7-1.1-7.1-1-0.3 0-0.7 0-1-0.3-1-1.1-2.4-1.3-3.7-1.4q-0.5 0-1 0c-0.1-0.4 0.1-1.1-0.4-1-0.4 0.1-0.3 0.5-0.3 0.9q-0.8-0.1-1.6-0.4c-1-0.4-2.2-0.5-3.3-0.6-2.8-0.1-5.7-0.2-8.5-0.2-7 0-13.9-0.4-20.9 0.4-2.9 0.3-5.9 0.3-8.8 0.7-4.3 0.7-8.5 1.5-12.8 2.3-0.5 0.1-1 0.3-1.4 0.1-1.3-0.5-2.5 0-3.7 0.2-1.6-0.4-3.2 0.5-4.8 0.2-0.7-0.1-1.3-0.1-1.9 0.2-0.6 0.4-1.2 0.4-1.9 0.4-2.4-0.2-4.9 0.1-7.3 0.3-1.2 0-2.4-0.3-3.6 0-1.8 0.4-3.5 1-5.4 0.9-1.1-0.1-2.2 0.4-3.2 0.6-1.4-0.1-2.6 0.5-3.9 0.8-0.6 0.1-1.2-0.3-1.7 0.2-1.1 1-2.2 1.4-3.6 1.7-2.4 0.6-4.7 1.3-7.1 0-0.6-0.3-1.3 0-1.5 0.7-0.4 0.8-1 0.9-1.7 1-1.2 0.1-2.5 0.2-3.7 0.6q-2.6 0.2-5.3 0.4c-1-0.2-2 0.4-3 0.4-0.2 0-0.3 0.2-0.3 0.5 0.3 0.8-0.3 1.1-0.8 1.4q-0.8 0.1-1.7 0.1 0 0.1 0 0.3 0.9 0 1.7 0.1c0.6 0.5 0.6 0.5 0.4 0.7-0.5 0.5-0.9 1.1-1.7 1.2-0.6 0.1-1.3 0.1-1.7 0.6-0.7 0-1.4 0.1-2.1 0.5-0.6 0-1.1-0.1-1.7-0.2-1.9-0.2-3.9 0.1-5.8 0.5h-0.1-0.1c-1.8-0.1-3.6-0.4-5.4-0.6-2.6-0.3-5.1 0.1-7.6-0.4-1.9-0.4-3.8-0.4-5.8-0.2-0.7 0.1-1.4 0.3-2.2 0.2-3.6-0.3-7.3-0.9-10.9-1-4.4-0.1-8.8 0.5-13.1 1.7-0.8-0.2-1.7-0.3-2.4-0.8-0.6-0.5-1.1-0.5-1.7-0.4-0.4 0-0.8 0.3-0.3 0.9 0.2 0.3 0.5 0.7 0.4 0.9-0.7 0.9 0 1.1 0.5 1.5-0.5 0.4-1.1 0.2-1.7 0.5-0.6-0.1-0.8 0.6-0.4 0.7 0.8 0.4 1.1 1.6 2.1 1.6 1.2-0.1 2.2 0.4 3.3 0.8 0.2 0.1 0.5 0.3 0.5 0.6 0.5 1.8 0.7 2 2.3 2.2 1.2 0.1 2.4-0.5 3.6-0.3 0.4 0.3 0.8 0.3 1.2 0.3 1.2-0.1 2.3 0.1 3.8 0.4-1.2 0.4-2.2 1.3-2.9 0.7-0.7-0.5-1.2-0.3-1.8-0.2-1.4 0.2-2.8 0.4-4.1 0.6-0.3-0.5-0.5-0.7-1-0.1-0.3 0.5-0.9 0.7-1.5 0.8-0.5 0.1-1.5-0.4-1.6 0.9q-0.1-0.1-0.2-0.3c0-0.3 0.1-0.7-0.4-0.7 0.3-0.5 0.5-0.8-0.3-0.7-0.7 0.1-1.5 0.3-1.5-1.1-0.4 0.7-0.2 1.4-0.5 1.9q0 0.1-0.1 0.2 0 0.1 0 0.2c-0.3 0.8-0.8 1-1.7 0.7 0.5-0.1 1-0.1 1-0.8-0.1-0.7-0.7-0.5-1-0.6-0.3-0.2-0.6 0-0.8 0.2-0.9-0.2-1.7-0.3-2.5 0.4-0.4 0.4-1-0.2-1.4 0.3-0.9-0.3-1.8 0-2.6-0.4-0.1 0.3-0.1 0.6-0.2 0.9-0.1 0.2-0.1 0.4-0.1 0.5-0.2 0.1-0.3 0.2-0.5 0.2-0.5 0-0.9 0.1-0.9 0.6 0 0.3 0.4 0.7 0.9 0.7q1.1 0 2.3 0.1c0.5 0 0.8 0.5 0.8 0.5 0.6-0.9 0.8 0.1 1.1 0.3 0.5-0.5 0.1-0.9 0.1-1.3 0.4 0 0.7 0.2 1.1 0.1 1.5-0.3 3 0.2 4.4 0.6 0.4 0.3-0.3 1 0.4 1.2 0.5 0.2 0-0.7 0.6-0.5 0 0.6 0.3 1.1 0.9 1.3-0.2 0.2-0.5 0.1-0.5 0.5 0.1 0.3 0.4 0.2 0.6 0.2q0.9-0.1 1.8-0.2c1.1 0 2.2 0 3.3 0.1 0.7 0 1.5 0.2 2.3-0.2q0.2 0 0.3 0c0.6 1.2 1.7 1.5 2.7 0.8 0.2-0.1 0.4 0 0.5-0.1 0.3 0.6 0.7 0.3 1.1 0.1 0.3-0.1 0.6-0.4 0.8-0.3 0.8 0.7 1.6 0.1 2.4 0.1 0.4 0.2 0.8 0.2 1.1-0.1 0.6-0.7 1-0.5 1.5 0 0.5 0.5 1.2 0.7 1.7 0.2 0.6-0.5-0.3-0.6-0.3-1 1.1-0.2 2.1-0.1 3.2-0.1 0.5 0.1 1 0 1.5 0 0.6-0.1 0.9 0.2 1.3 0.5 1.1 0.9 3.8 0.6 4.8-0.4 0.3-0.3 0.6-0.4 0.9-0.1 0.4 0.5 0.9 0.6 1.4 0.5 1.2-0.1 1.9 0.8 2.7 1.5-0.2 0.3-0.4 0.1-0.5 0.1-3.6 0.4-7.3 0.1-10.9 0.5-2.2 0.2-4.5 0-6.8 0.1-2 0.1-4 0.4-6 0.3-1.7 0-3.4 0.3-5.2 0.6 0.3 0.1 0.5 0.2 0.6 0.2 2.6 0.1 5.2 0.3 7.8 0.1 2.7-0.2 5.5-0.1 8.2-0.1 1.6 0 3.2-0.5 4.8 0.2 0.2 0.1 0.7 0.2 1.2 0.1 2.9-0.5 5.9-0.2 8.9-0.6 1.3-0.1 2.6 0.3 4 0.3 0.2 0.2 0.5 0 0.6 0.3q-0.1 0.2-0.2 0.4c0 0.7-0.6 0.8-0.9 1.2-1.2 0.5-2.5 0.1-3.8 0.2q-0.9 0-1.7 0c-0.6 0.1-0.9 0.4-0.7 1.1-1.2 0.2-2.1-1.1-3.3-0.9 0.2 0.6 0.7 0.5 0.9 0.9-0.4 0.2-0.7 0.3-1 0.4q-0.1-0.1-0.2-0.2c0-0.3 0-0.7-0.2-1-0.3-0.3-0.9-0.4-0.8 0.1 0.2 0.8-0.4 0.8-0.7 1.1q-0.3 0.2-0.7 0.4c-0.7-0.5-1.5-0.5-2.3-0.5q0 0 0 0.1 0-0.1 0-0.1c-0.5-1 0.8-0.4 0.7-1-0.7-0.3-1.2-0.2-1.5 0.8-1-1.2-1-1.3-1.9-0.3-0.1 0.1-0.2 0.1-0.3 0.1-0.6-0.2-1.3-0.3-1.7 0.4-0.6-0.1-1.3-0.3-1.9 0.1-0.3-0.2-0.6 0-0.9 0-0.3 0-0.6-0.1-0.7 0.3 0 0.4 0.3 0.5 0.6 0.5 0.9 0.1 1.9 0.4 2.7-0.2 0.5 0.5 1 0.4 1.5 0.2 0.6 0.3 1.1 0.3 1.7 0.3q0.1 0 0.2 0c0.4 0.5 0.8 0.1 1.1-0.1 0.2-0.2 0.5-0.5 0.8-0.3 0.1 0.3-0.2 0.6-0.1 1q0.6-0.1 1.2-0.1 0.1 0 0.2 0c0.7 0.5 1.1-0.1 1.5-0.7 0.2 0.5 0.4 1.1 0.9 0.3 0.1-0.2 0.3-0.3 0.6-0.1 0.5 0.3 1.1 0.2 1.7-0.2 0.1-0.1 0.9 0.1 1.1 0.1 0.2 0 1.1 0.5 0.6-0.5 0-0.3 0.3-0.1 0.4-0.2 0.5 0.6 1.2 0.8 1.9 0.8 0.7 1 1.1 1 1.8 0 0.1-0.2 0.3-0.3 0.5-0.2 0.7 0.1 1 0.6 1 1.8 0.4-0.8 0.7-0.9 1.2-0.9 0.6 0.1 0.5-0.4 0.4-0.8 0.9-0.3 1.8 0.6 2.7-0.2 0.2-0.1 0.7 0 0.8-0.4 0.1-0.3-0.4-0.4-0.6-0.6-0.1-0.1-0.3-0.1-0.2-0.4 1.1-0.6 2.2 0.2 3.3 0.2 0.1 0.4 0.8 0.7 0 1-0.2 0.1-0.4 0.1-0.2 0.4 0 0.2 0.2 0.3 0.3 0.3 0.5 0 0.9-0.3 1.2-0.6 0.4-0.5-0.1-0.6-0.3-0.8-0.2-0.3 0.2-0.3 0.3-0.5q0.2-0.1 0.4-0.2c0 0.5 0.5 0.7 0.4 1.2-0.2 0.4-0.4 0.8 0.1 1.1 0.6 0.3 0.6-0.5 0.9-0.7 0.8 0.2 1.6 0.3 2.4 0.6 0.7 0.8 0.8-0.1 1.1-0.5q0.2 0 0.4 0c0.2 0.1 0.3 0.2 0.5 0.3 0.8 0.8 1.5 0.8 2.4 0 0.2-0.2 0.7-0.7 1.2-0.2 0.1 0.1 0.3 0 0.4-0.2 0.1-0.2-0.1-0.3-0.2-0.4q-0.3-0.1-0.6-0.2c-0.2-1.4-0.2-1.4 1-1.3 0.1 0.4-0.1 1.1 0.6 0.9 0.2 0.3 1.9 1.4 2.1 1.4q0.3 0 0.6 0.1c0.9 0 2 0.5 2.7 0.2 1.7-0.6 3.4 0 5-0.6 0.2-1 0.7-1.2 2.2-1-1.1-0.1-1.1-0.1-1.5 0.4 1.5 0.7 3 1.2 4.8 1.5-1.2 0.4-2.2 0.4-3 1-0.6 0.5-1.4 0-2 0.3-0.1-0.5-0.4-0.8-0.9-0.7-0.7-0.3-1.5-0.3-2.2 0.3-1.2-0.9-2.5 0-3.8-0.4-0.9-0.3-2 0.3-2.9 0.2-0.7 0.1-1.4-0.3-2.2-0.1 0.5 0.4 0.8 0.7 1.1 0.9-0.8 0.3-1.7 0.3-2.5 0.2-0.6 0 0-0.2 0-0.3 0.1-0.1 0.4-0.1 0.3-0.2-0.1-0.3-0.4-0.6-0.7-0.6-0.9 0-1.8 0.1-2.8 0-0.1-0.1-0.3-0.1-0.4 0.1 0 0.3 0.2 0.4 0.3 0.4 0.1 0.3 0.5 0.1 0.5 0.4q-0.2 0.1-0.3 0.2c-0.3 0.1-0.7-0.1-0.7 0.3 0.1 0.5 0.5 0.2 0.8 0.3q1.6 0 3.3 0c-0.2 0.2-0.5 0.2-0.6 0.4-0.3 0.1-0.4 0.3-0.1 0.4 0.5 0.2 1 0.2 1.6 0.1 0.9-0.1 2 0.3 2.9-0.1 0.8 0.2 1.6 0.3 2.4 0q0.2 0 0.4 0c1.9 0 3.8 0.5 5.7-0.3-0.2-0.6-0.7-0.2-1.1-0.4-0.4-0.2-0.9 0.2-1.5-0.1 3.8-0.8 7.2-1.1 10.9-0.1-2.6 0.6-5.1 0-7.5 0.6 0.9 0.1 1.9 0.6 2.8 0.4 1-0.2 2-0.1 3-0.1 2.4 0 4.7 0.2 7 0.2 2.4 0 4.8-0.4 7.2 0.1 0.5 0.1 1-0.7 1.6-0.3 0.3 1.1-0.7 0.5-1 0.9-0.6 0-1.2 0.4-1.9 0.2-0.2-0.1-0.5-0.6-0.6 0-0.1 0.3-0.1 0.8 0.5 0.8 0.5-0.1 1 0.2 1.5 0.4 0.8 0.5 1.6 0.6 2.5 0.6q0.1 0.1 0.2 0.1c0.6 0.2 1.2 0.4 1.9 0.4 0.3 0 0.8 0 0.4-0.7-0.4-0.5-0.4-0.8 0.3-0.7 1.8 0.1 3.6 0.3 5.4 0.6 1.1 0.3 2.3 0.3 3.4 0.7-3 1.2-5.9 0.5-8.9 0.4 0.2 0.5 0.6 0.6 0.9 0.7q2 0.4 4 0.8c1.7 0.3 3.5 0.5 4.9 1.9 0.1 0.1 0.4 0 0.2 0.3-0.1 0.1-0.3 0.1-0.4 0.1-0.3-0.4-0.5 0-0.7 0.1-1.9 0.1-3.9 0.4-5.8 0.8-1.5 0.3-3 0.4-4.5 0.8-0.8 0.3-1.7 0.1-2.5 0.5-1.7 0.2-3.4 0.3-4.9 1.4-2.6-0.2-4.8 0.7-6.9 2.2-1.8-0.1-3.6 1-5.5 0.7-0.1-0.1-0.3 0-0.3 0.1 0 1.1-0.7 0.6-1.1 0.6-0.5 0-1-0.1-1.5 0.1-1.6 0.6-3.3 0.2-5 0.3-2.8 0-5.6-0.6-8.4-0.5q-1.1 0-2.3-0.2c-1.2-0.1-2.4-0.3-3.6-0.1-0.9 0.2-1.7 0.4-2.6 0.4-2.9-0.1-5.7-0.9-8.6-0.5-0.7 0-1.6 0.1-2.3-0.4-0.7-0.6-1.4-0.6-2.2-0.4q-1.1 0.3-2.2 0.1c-2.9-0.5-5.8-0.8-8.7-0.6-0.9 0-1.8-0.1-2.9 0.3 0.4 0.2 0.6 0.3 0.9 0.4 1.5 0.3 3 0.5 4.5 0.9 1.2 0.3 2.3 0.8 3.4 1 2.9 0.5 5.8 0.8 8.6 1.2 0.3 0.4 1 0.3 0.9 0.9-0.1 0.6-0.7 0.2-1 0.3q-0.3 0.1-0.6 0.3c0.3 0.3 0.6 0.7 0.9 0.9 0.2 0.2 0.4 0.2 0.4 0.6-0.1 0.3-0.4 0.3-0.6 0.4-1 0-1.9 0.5-2.8 0.9-0.6-0.1-1.3 0.2-1.9 0-0.3-0.8-0.9-0.6-1.4-0.5-1.6 0.3-3.3 0.2-4.9 0.1-1.5-0.2-2.9 0.4-4.2 1.1 0.5 1 1.2 1.7 2.1 1.7 1.7 0 3.3 0.3 4.9 0.4 0.8 0 1.6-0.5 2.4 0 0.4 0.3 0.8 0.3 1.3 0.2q0.1 0 0.2 0.1c0.2 1.7 0.8 2.9 2.5 3.1 0.6 0.2 1.1 0.9 1.9 0.5 0.5 0 0.8 0.2 1.2 0.8 0.7 1.3 2 1.8 3.3 1.9 1.6 0.1 3.2 0.5 4.7 0.9 1.8 0.3 3.5 0.8 5.3 0.9q0.2 0 0.3 0.1c-1.1 0-2.3 0.2-3.5 0.4 1 0.2 1.9 0.7 2.8 0.1 0.1 0.2 0 0.4 0 0.6q-2.1-0.3-4.2-0.5-0.1-0.2-0.2-0.3c-0.2-0.4-0.4-0.5-0.8-0.6-0.7-0.1-1.3 0-1.9-0.1-1.2-0.1-2.4 0-3.7-0.2-0.1 0-0.3 0-0.4 0.1-1.8-0.3-3.6-0.7-5.4-0.8 0.7 0.9 1.6 1.2 2.4 1.3q0.1 0.1 0.1 0.1c-0.2 0.4-0.7 0.5-0.7 0.9 0 0.8-0.5 0.9-1 1.1 0-0.4-0.4-0.3-0.5-0.5-0.1-0.5 0.5-0.2 0.5-0.5 0-0.2 0.2-0.4 0-0.4-0.4-0.2-0.2-0.2 0-0.4 0.2-0.1 0.4-0.5 0.3-0.7-0.2-0.3-0.5-0.2-0.7-0.1-0.4 0.3-1.1 0.5-1.3 1.1 0 0.2-0.3 0.4-0.1 0.6 0.5 0.5 0.2 0.7-0.2 0.8q-0.1 0-0.2 0c-0.2 0-0.4 0-0.7 0.2 0.2 0.1 0.5 0 0.5 0.3-0.5 0.4-1 0.1-1.4-0.4-0.3-0.5-0.9 0.3-1.3-0.3 0.6-0.1 0.7-1.3 1.6-0.8 0 0 0.1-0.1 0.1-0.2 0.5-0.3 0-0.6 0-0.9-0.2-0.6-0.3-0.5-0.6-0.2-0.6-0.6-0.9 0-1.3 0.3 0.2 0.2 0.5 0.4 0.4 0.8q-0.1 0.1-0.1 0.2c-0.2 0.3-1 0.4-0.3 1-0.1 0.1-0.1 0.4-0.2 0.4q-0.1 0.1-0.3-0.1c-0.4-0.3-0.7-0.6-0.8 0.3 0 0-0.2 0.1-0.3 0.1-0.3-0.2-0.7 0-1.1-0.2 0.3-0.2 0.6-0.1 0.8-0.4-0.3 0-0.8-0.2-0.9-0.1-0.6 0.8-1.1 0.3-1.7 0-0.1-0.4-0.3-0.7-0.6-0.9q0.3-0.1 0.6-0.2c0.2 0 0.4 0.1 0.7 0-0.1-0.5-0.5-0.2-0.7-0.5q0.1-0.1 0.1-0.1c0.2-0.2 0.4-0.3 0.2-0.5-0.1-0.2-0.2-0.4-0.4-0.3-0.2 0.1-0.3 0.3-0.2 0.5 0 0.3 0 0.4-0.2 0.5q-0.1 0-0.2 0c0.1-0.2 0.3-0.5-0.1-0.6-0.3-0.1-0.3 0.4-0.4 0.6-0.2 0.1-0.2 0.3-0.1 0.5q-0.1 0.4-0.2 0.8c-0.1 0.1-0.2 0.3-0.4 0.2-0.4-0.1-0.3 0.7-0.7 0.5-0.2-0.2-0.6 0-0.7-0.4-0.1-0.5-0.6-0.4-0.9-0.7 0.1-0.2 0-0.4 0.2-0.6 0 0.2 0.1 0.5 0.3 0.3 0.2-0.2 0.4-0.5 0.4-0.9 0-0.4-0.2-0.4-0.4-0.3-0.3 0-0.5 0.1-0.8 0.1-0.4-0.1-0.7 0.2-0.3 0.6-0.1 0.1-0.2 0.2-0.3 0.4-0.4-0.3-0.7 0-1.1 0-0.4-0.4-0.7-0.3-1 0.1 0.3 0.3 0.7 0.3 1 0.2q0.7 0 1.4 0.1 0.1 0 0.2 0.1c0.1 0.4 0.5 0.5 0.7 0.8 0 0.5-0.4 0.4-0.6 0.4-1.1 0.2-2.2-0.3-3.3 0.2 0 0-0.1 0-0.1 0 0.1-0.5 0.3-1-0.5-0.8-0.1 0-0.2-0.2-0.3-0.3q0 0 0 0c-0.1-0.3-0.3-0.6-0.6-0.3-0.2 0.3-0.2 0.7 0.2 0.9 0.1 0.1 0.4 0.1 0.2 0.5-0.1 0 0 0.2-0.1 0.2-0.1 0.2 0.4 0.5-0.1 0.6-0.3 0-0.5-0.1-0.4-0.4 0-0.4-0.2-0.3-0.4-0.3-0.6-0.3-1.2 0.2-1.8 0.3-0.5 0-1.1-0.3-1.4 0.3-0.3 0-0.5-0.2-0.5-0.5-0.1-0.2-0.1-0.3-0.2-0.3-0.2 0-0.2 0.1-0.2 0.3-0.1 0.7-0.5 0.6-0.9 0.5-0.3-0.2-0.5-0.2-0.8 0-0.2 0.1-0.5 0.4-0.9 0.1-0.1-0.1-0.3 0-0.3 0.2 0 0.2 0.1 0.3 0.2 0.3 0.8 0.1 1.7 0.3 2.5 0.4 0.2 0 0.7-0.1 0.6-0.3-0.2-0.5 0.1-0.4 0.3-0.5 0.1 0.5 0.6 0.8 0.8 0.6 0.4-0.4 0.6-0.4 1.1-0.2 0.7 0.3 1.5 0.2 2.2 0.3-0.2 0.4-0.5 0.9 0.2 1.1 0.3 0.1 0.2 0.4 0.1 0.6-0.1 0.2-0.3 0.2-0.5 0-0.2-0.1-0.2-0.4-0.4-0.4q-0.2-0.1-0.3-0.3c-0.1-0.1-0.2-0.3-0.3-0.2-0.2 0-0.2 0.2-0.2 0.3 0.1 0.3 0.3 0.3 0.5 0.2 0 0 0.1 0.1 0.1 0.1-0.1 0.6-0.8 0.3-0.8 0.8 0 0.7-0.5 0.4-0.6 0.3-0.3-0.8-0.7-0.5-1.2-0.3-0.3 0.1-0.7-0.1-0.6-0.4 0.1-0.3 0.1-0.9 0.7-0.8 0.2 0.1 0.4 0 0.4-0.3-0.1-0.3-0.4-0.4-0.6-0.3-0.6 0.4-1.3 0.1-1.9 0.3-0.3 0.1-0.7 0-0.7 0.4 0 0.4 0.4 0.3 0.7 0.2 0.2 0 0.4-0.1 0.6-0.1 0.2 0 0.5-0.2 0.7 0.2-0.8 0.4-1.6 0.2-2.4 0.3-0.6 0-1-0.1-0.8 0.9-0.1-0.3-0.3-0.3-0.5-0.3 0.1 0 0.2 0 0.3-0.1 0.2-0.1 0.1-0.3 0-0.3-0.3-0.2-0.7-0.3-1 0.2q0.3 0.2 0.6 0.3c-0.2 0.1 0 0.3 0 0.5 0.1 0.2 0.2 0.7 0.1 0.7-0.2 0-0.4 0.1-0.6 0.2q-0.6-0.1-1.2 0c0-0.1 0.2-0.2 0.3-0.3 0.3-0.2 0.8-0.2 0.4-0.9-0.1-0.2-1.3-0.5-1.4-0.4-0.2 0.2-0.2 0.3-0.1 0.5q0 0.3 0 0.6c-0.5 0.1-1 0.1-1.5 0.2-0.2 0.1-0.6-0.3-0.8 0.1-0.1 0.4 0.5 0.3 0.5 0.6-0.2 0.2-0.3 0.2-0.5 0.2-0.4-0.3-0.9-0.1-1.3 0q-0.4 0-0.8 0.1-0.3-0.1-0.6-0.3-0.1 0-0.4 0c0 0-0.1-0.1-0.2-0.1-0.2-0.2-0.6-0.6-1-0.5q0 0 0 0c-2.6-1.1-2.6-1.1-3.4-0.5 0.9 0.3 1.9 0.4 2.9 0.5-0.6 0-1.2-0.1-1.6 0.5-0.1 0.2-0.3 0-0.5 0-0.6 0-1.2 0.2-1.7 0.8 0.1 0.2 0 0.7 0.4 0.6 0.6-0.1 1.2 0.2 1.8-0.1 0.4-0.2 0.8-0.2 1.3-0.2-0.3 0.2-0.6 0.2-0.6 0.5 0 0.3 0.4 0.3 0.6 0.3 0.8 0.1 1.6-0.2 2.4 0.1 0.1 0 0.3-0.2 0.3-0.4 0-0.4 0.3-0.4 0.6-0.4 0.3 0 0.5 0 0.8 0.1q0 0.1 0 0.2c-0.1-0.1-0.3-0.1-0.3 0 0 0.4-0.3 0.6-0.4 0.9q-0.1 0.1-0.2 0.2c-1.6 0.1-3.2 0-4.8 0.1-0.3 0-0.4-0.2-0.5-0.5 0-0.3-0.1-0.5-0.3-0.5-0.2 0-0.3 0.1-0.4 0.3 0-0.5-0.2-0.5-0.8-0.5-0.3 0.1-0.5 0.3-0.6-0.2 0-0.3 0.8-0.5 0-0.8q0-0.3 0.2-0.6c0.3-0.2 0.5-0.6 0.2-0.8-0.5-0.4-1-0.2-1.5 0.1 0.5 0 0.7 0.3 0.7 0.8-0.1 0.7-0.6 0.4-0.9 0.5-0.3-0.1-0.5 0.4-0.8 0.3-0.5 0.3-0.5-0.2-0.5-0.5 0.1-0.6-0.1-0.8-0.6-0.5-0.2-0.3-0.1-0.9-0.7-0.2-0.2 0.2-0.5 0.3-0.6 0.6-0.2 0.3-0.5 0.5-0.7 0.4q-0.1 0-0.1-0.1c-0.3-0.2-0.7-0.4-1-0.4-0.7-0.1-0.8 0.7-1 1.2-0.4 0.1-0.8 0-1.1 0.6 0 0.1 0.3 0 0.3 0.2-0.1 0.3-0.5 0.5-0.2 0.9 0.3-0.3 0.7-0.4 1.1-0.4 0.3 0.3 0.6 0.6 1 0.2q0 0 0-0.1c0.7-0.2 0.5 0.4 0.4 0.8 0.1 0.4-0.2 0.3-0.4 0.4-0.5 0.1-0.7-0.5-1.2-0.4-1 0.4-2.1 0.4-3.1 0.8-0.4 0.1-0.8-0.3-1.2 0-0.3 0-0.4 0.2-0.7 0.3-0.4 0-0.4 0-0.5 0.5 0.6 0.3 1.1-0.2 1.7-0.2q0.2 0.1 0.3 0.1 0.3-0.3 0.6 0c0.3 0.5 0.5 1-0.3 1.2 0 0 0 0.1 0 0.1-0.6 0.7-1.4-0.1-2.1 0.3 0 0.1 0 0-0.1 0-0.1-0.1-0.3 0-0.3 0.1 0 0.8-0.4 0.6-0.8 0.5-0.4-0.1-0.7 0.6-1.1 0.1-0.3-0.8-1.2 0-1.5-0.8 0 0-0.2 0.1-0.2 0.3-0.2 0.6-0.5 0.3-0.7 0.1 0.1-0.3 0-0.3-0.3-0.3-0.6 0.1-0.6 0.9-1.1 1.1-0.3-0.1-0.6 0.1-0.9-0.2-0.2-0.1-0.3-0.1-0.3 0.2-0.4 0.4-1 0.1-1.3 0.6q-0.4 0-0.7-0.1c0.1-0.7 0.6-0.5 1-0.7 0.2-0.2-0.1-0.9 0.6-0.6-0.3-0.2-0.6-0.3-0.7-0.5q0-0.4 0.3-0.2c0.4 0.1 0.8 0 1.1 0.6 0.1-0.3 0-0.6 0.2-0.7 0.2-0.4 0.1-0.7-0.3-0.6-0.2 0-0.3 0.2-0.4 0.1-0.7-0.6-1.3 0.1-1.9 0.1-0.3 0.2-0.5 0-0.8 0-0.3 0-0.5 0-0.5 0.5-0.3 0.2 0.2 0.5-0.1 0.6-0.4 0.2-0.5 0.6-0.6 0.9-0.3 0.7-1.3 1.3-1.6 0.9-0.4-0.3-0.5-0.1-0.7 0.1-0.1 0.1-0.3 0.3-0.4 0.3-0.3 0.1-0.6 0.1-0.9 0.2 0-0.3 0-0.7 0.1-1 0-0.1 0.3-0.2 0.2-0.4-0.1-0.1-0.3-0.1-0.4-0.1-0.2 0.1-0.4 0.2-0.4 0.4 0 0.4 0 0.7-0.4 0.4-0.1-0.1-0.2 0-0.1 0.1 0.1 0.4-0.1 0.4-0.3 0.3-0.6-0.2-1.1 0-1.6 0.3-0.3 0.2-0.7-0.3-0.9 0.2-0.5 0.2-0.9 0.4-1.4 0.3-0.9 0.2-1.8 0.5-2.7 0.6-0.5 0.1-0.7 0.3-0.7 0.8q-1.5 0.4-3 0.7c-0.1 0-0.3 0.1-0.3 0-0.5-0.5-0.8-0.4-1.1 0.2-0.2 0.3-0.5 0.5-0.9 0.5-0.2 0-0.5-0.1-0.5 0.2q-0.2 0.1-0.4 0.2-0.6 0-0.9 0.5c0.5-0.3 1 0 1.5-0.3q0.7-0.1 1.4-0.2c0.4 0.2 0.6-0.3 0.9-0.3q0 0.1 0 0.2c0.1 0.6-0.5 1.2-1.1 1.3-0.9 0.1-0.9 0.1-1.4 0.8 0.2-0.1 0.6-0.1 0.8-0.2 0.7-0.3 1.5-0.3 2.1-0.7 0.3 0 0.6-0.1 0.8-0.2q1-0.2 2-0.3c0.6-0.1 0.7 0.2 0.5 0.8q-0.6 0.2-1 0.4c-0.5 0.2-1-0.1-1.4 0.4-0.1 0-0.3 0.2-0.5 0.2-1.3 0-2.6 0.7-3.9 0.9-0.4 0.1-0.9 0.2-1.4 0.5q-0.4 0.1-0.9 0.2c-0.5 0.1-1.1 0-1.5 0.5-0.1 0.1-0.4 0.2-0.3 0.5 0.2 0.2 0.4 0.2 0.6 0.1 0.6-0.2 1.3-0.3 1.9-0.6 0.8-0.4 1.7-0.3 2.5-0.9 1.1 0.1 2.1-0.8 3.3-0.7 0.1 0 0.2-0.1 0.3-0.2 0.9-0.4 1.9-0.5 2.8-0.7 1-0.4 2-0.8 3.1-0.4 0.2 0.1 0.4-0.1 0.5-0.3 1 0 2 0.1 3-0.4 0.5-0.1 1.2 0.2 1.7-0.3q0.7-0.1 1.4-0.3c1 0.1 2.1-0.1 3.1 0.6q-0.2 0.1-0.3 0.3c-1 0.1-2 0.2-3 0.5-0.8 0.2-1.6 0.5-2.4 0.4-0.5-0.1 0.1 0.5-0.2 0.7-0.1 0-0.2 0.1 0 0.1 0.4 0.1 0.8 0.3 1.2 0.1 0.6-0.1 1.1-0.1 1.6-0.2 1.1-0.3 2.2 0.3 3.2-0.3 0.1-0.1 0.4-0.1 0.5 0.1-0.6 0.3-1.3 0.7-2 0.7-0.5 0-1 0.1-1.4 0.6q-0.5-0.2-1.1-0.1c-0.9 0.1-1.8 0.2-2.7 0.4-1.2 0.4-2.4 0.4-3.6 0.7-0.7 0.1-0.7 0.2-1 0.8 0.9-0.5 1.8-0.4 2.6-0.5 1.8-0.3 3.5-1 5.3-1 0.2 0 0.4 0 0.6 0q0.1 0 0.2 0c0.1 0.1 0.2 0.3 0.2 0.6-0.9 0.2-1.8-0.2-2.8 0.3-0.5 0.3-1.4 0.2-2.1 0.3-1.8 0.2-3.5 0.6-5.3 0.9-0.7 0.3-1.5 0.1-2.2 0.5 0.1 0.2 0.6 0.2 0.2 0.6-0.2 0.1-0.5 0.1-0.7 0.1-0.7-0.6-0.8-0.6-1.4 0.2q0 0.2-0.1 0.1c-0.4-0.1-0.7 0.1-1-0.2-0.9-0.3-1.1 0.4-1.4 1.1-0.5 0-1 0-1.4 0.3-0.1 0.1-0.4 0.1-0.4-0.1-0.2-0.6-0.2-0.6-0.7-0.3-0.6-0.2-1.2 0.3-1.8 0.4-0.2 0-0.4 0.3-0.2 0.6 0.1 0.2 0.2 0.2 0.3 0.3-0.5 0.4-1 0.4-1.6 0.5-0.5 0-1 0.1-1.3 0.5-0.7-0.7-0.7-0.7-1.3 0.1-0.1 0.2-0.3 0.4-0.4 0.1-0.3-0.8-0.6 0-1 0.1 0.4 0.1 0.7 0.2 0.6 0.6q-0.3 0.1-0.5 0.3c-0.5 0-0.9 0.1-1.2 0.6 0.5-0.2 0.9 0.1 1.3-0.3q0.1 0 0.3 0c0 0.3-0.1 0.5-0.2 0.8-0.6 0.1-1 0.8-1.6 0.9-0.4 0.2-0.8 0.3-1 0.8-0.3 0.1-0.5-0.5-0.7-0.2-0.4 0.5-1.1 0.5-1.6 0.9-0.4-0.3-0.7-0.2-1.1 0.2-0.4 0.5-1 0.4-1.5 0.4-0.3 0-0.6-0.1-0.7 0.3-0.1 0.3-0.3 0.4-0.4-0.1 0-0.1-0.1-0.1-0.2 0-0.4 0.5-1.1 0.6-1.6 0.7-0.4 0.1-0.8 0.2-1 0.7-0.3 0-0.4 0.4-0.7 0.3-1.2-0.7-1.8 0.7-2.9 0.9-0.3 0.1-0.8 0.5-1.3 0.6-0.2 0-0.5 0-0.6 0.4-0.6 0.4-1.4 0.4-1.9 0.9-0.3 0.1-0.7 0.1-0.7 0.5 0 0.5 0.4 0.2 0.6 0.2 0.6 0.3 1.1-0.2 1.6-0.3 1.7-0.3 3.1-1.1 4.7-1.6 0.8-0.3 1.7-0.6 2.6-0.6 0.4 0 0.7 0 0.9-0.5q0.5-0.3 1.2-0.5c1-0.4 2.1-0.4 3-1 0.8 0.2 1.5-0.4 2.3-0.6q0.6 0 1.2 0c0.2 0 0.6-0.3 0.6 0.1 0.1 0.4-0.4 0.4-0.6 0.5-0.2 0.1-0.3 0-0.5 0.1-0.3 0.1-0.7 0.1-0.8 0.6-0.5 0.2-1.1 0.4-1.7 0.5-0.6 0.2-1.4 0.4-1.7 1-0.4 1.2-1.6 1.7-2.1 2.7-0.4 0.7-1.1 0.8-1.5 1.4-1.3 1.3-2.5 2.7-3.6 4.1-0.3 0.1-0.5 0.5-0.5 0.7-0.3 1.3-1.3 2.3-1.4 3.7 0 0.3-0.1 0.6-0.4 0.7-0.1 0.1-0.2 0.2-0.2 0.3-0.6 1.1-0.1 2 0.3 2.9 0.3 0.7 0.6 1.5 1.3 2q1 1.4 2.6 2c0.6 0.2 1.2 0.5 1.7 0.9 1.2 0.9 2.5 1.4 3.8 1.9 1.2 0.5 2.4 1.1 3.6 2.1-1.6 0.2-3 0.9-4.5 0.8 0.1-0.2 0.6-0.1 0.4-0.4-0.1-0.3-0.4-0.1-0.6-0.1-0.3 0-0.3 0.2-0.2 0.5-0.9-0.1-1.8-0.2-2.8 0.1-0.3 0.1-0.7-0.1-1-0.2-0.3-0.1-0.5-0.2-0.4-0.6 0-0.2 0.1-0.5-0.2-0.8-0.7-0.6-1.5-0.3-2.1-0.5-2.4-0.5-4.6 0.2-6.8 1.1-0.3 0.2-0.6 0.1-0.8 0.1-0.7 0-1.3-0.6-2.1 0 0.7 0.1 1.3 0.3 1.9 0.4 0.2 0 0.4 0.1 0.6 0.3-0.3 0.2 0.1 0.6 0 0.8-0.2 0.2-0.6 0.1-0.8 0-0.3-0.2-0.6-0.1-1 0.2 0.7 0.2 1.2 0.4 1.8 0.4 0.7 0.1 0.6 0.6 0.6 1.1-0.4 0.8-0.8 0.6-1.1 0.6zm9.5 12.2q0 0-0.1-0.1h0.1q0 0.1 0 0.1zm45.3 40.1q0 0 0 0 0 0 0.1 0-0.1 0-0.1 0zm462.6 11.3q0 0-0.1-0.1 0.1 0 0.2 0 0 0-0.1 0.1zm71.2-22.4c-0.4 0.4-1 0.3-1.2 0.8-0.4-0.4-1-0.1-1.4-0.5 0.8-0.1 1.7-0.3 2.6-0.3zm-4.5 0.9q0 0-0.1 0.1c-0.2-0.4-0.7-0.6-0.7-1.1 0.3 0.2 0.5 0.7 0.8 1zm-10.4 3.2q0 0 0 0 0 0.1 0 0zm-5 6.5q0-0.1 0-0.2 0 0 0 0 0.1 0 0.1 0.1 0.1 0 0.1 0-0.1 0.1-0.2 0.1zm0.8-0.3q0 0.1 0 0.1c-0.1 0.1-0.3 0.1-0.5 0.1 0.3-0.1 0.3-0.4 0.3-0.7-0.1-0.3-0.2-0.5-0.5-0.4 0 0-0.1-0.2 0-0.1 0.6 0.1 0.7 0.5 0.7 1zm60.4-98.6q0 0 0 0 0 0 0 0zm-31.7-49.4q0 0 0 0 0-0.1 0-0.1 0 0 0 0.1zm-0.8-38.8q0 0 0 0zm-293.3-16.8q0.1 0 0.1 0 0 0-0.1 0 0 0 0 0zm-217.3 35.5q0-0.1 0 0 0.1 0 0.1 0 0-0.1-0.1 0zm3.9-0.1q-0.1 0-0.3 0 0 0 0-0.1 0.1 0.1 0.3 0.1zm13.3 10.7q0.1 0 0.1 0.1 0 0-0.1-0.1zm60.3-19.3h0.1q0 0 0 0 0 0-0.1 0zm3.5-12.8q0 0 0 0 0 0-0.1 0 0.1 0 0.1 0zm-0.7 38v0.1q0-0.1 0-0.1zm3.9-30.4q0 0-0.1-0.1 0.1 0 0.2 0-0.1 0.1-0.1 0.1zm4.5-8.1q0 0-0.1-0.1h0.1q0 0.1 0 0.1zm4.3 9.3q0 0 0 0 0 0 0 0 0 0 0 0zm-64.4 45.6q0 0 0 0 0 0 0 0c0.1 0 0 0 0 0zm-29.9 21q0.1 0 0.1 0 0 0-0.1 0 0 0 0 0zm40.1-5.1q0.2 0.1 0.4 0.2c0.1 0 0 0.2 0 0.3-0.4 0-0.7-0.1-1.2 0.1 0.1 0.1 0.2 0.1 0.4 0.1q-0.2 0-0.3 0c-0.1 0-0.2-0.1-0.3-0.1q0-0.3 0-0.6c0.1-0.1 0.1-0.1 0.2-0.1q0.4 0.1 0.8 0.1zm-6.2 0.8q0 0 0 0 0.1 0 0.1 0-0.1 0-0.1 0zm-51.8 8.6c0.3 0.3 0.7 0.3 1 0.5-0.2-0.1-0.4-0.3-0.6-0.1q0 0 0 0c-0.1-0.2-0.3-0.2-0.5-0.4q0.1 0 0.1 0zm-7.4 73.5q0 0 0-0.1 0 0 0.1 0-0.1 0-0.1 0.1zm2.2 2.9q0 0-0.1 0 0.1 0 0.1 0 0 0 0 0zm1.4 2.7q0-0.1 0 0 0-0.1 0-0.1 0 0 0 0.1zm0.4-0.8q0-0.1 0-0.1 0.1 0 0.1 0.1 0 0-0.1 0zm3 21.1q0 0 0 0 0 0 0 0zm0.9-12.7q0 0 0-0.1 0.1 0.1 0.1 0.1 0 0-0.1 0zm245.7 28.9q0 0 0.1 0.1-0.4 0-0.8-0.1c0.2-0.1 0.4-0.2 0.7 0zm-55.1-3.6c-0.1 0.1-0.2 0.1-0.2 0.1q0.1-0.1 0.2-0.1zm342.3-121.6zm-282.7 122.9c-0.1 0.1-0.1 0.1-0.2 0.2 0 0 0 0 0-0.1q0.1-0.1 0.1-0.2 0.1 0.1 0.1 0.1zm4.2 0.2c0-0.1-0.1-0.1-0.2-0.2-0.2-0.1-0.6-0.1-0.9-0.2 0.3-0.1 0.6-0.2 1-0.3q0 0 0.1 0c0.4 0.3 0.7 0.6 0.7 1.1q-0.4 0-0.8 0 0.2-0.1 0.1-0.4zm-141 12.4q-0.2 0.2-0.5 0 0.4 0 0.7-0.1-0.1 0.1-0.2 0.1zm7-9.7q0 0 0 0zm2.9 6.3q0 0 0 0 0 0 0 0zm3-5.5q0 0 0 0 0 0 0.1 0-0.1 0-0.1 0zm2.2 5.2q0-0.1 0-0.1 0 0 0 0c0 0 0 0.1 0 0.1zm2.3-8.7q0 0 0-0.1 0 0.1 0 0.1zm75.3 1.3c-0.7 0.5-1.4-0.2-2-0.3-0.2 0 0-0.3 0-0.5 0.5 0 1 0.1 1.7-0.1-0.6-0.5-1.2-0.5-1.7-0.4q-0.2-0.2-0.4-0.1-0.1 0-0.1 0.1c-0.2-0.3-0.3-0.5-0.1-0.8q0.1 0.1 0.2 0.1c0.7 0.4 1.6 0.4 2.3 0.7q0.1 0 0.1 0.1c-0.1 0.4 0 0.8 0 1.2zm7.7-1.2q-0.1 0-0.1-0.1 0.1 0.1 0.1 0.1 0 0 0 0zm29.2 0c0.2 0.1 0.4 0.1 0.6 0.1q-0.3 0.3-0.6 0.5 0 0.1-0.1 0.2-0.1-0.1-0.2-0.2c0-0.4 0.1-0.5 0.3-0.6zm25.4 0.7q0.3-0.1 0.7-0.2c0.4-0.1 0.6 0.2 0.7 0.4q0 0.1 0 0.1-0.1 0-0.3 0c-0.2 0.1-0.5 0.3-0.7 0.1-0.1-0.1-0.3-0.3-0.4-0.4zm83.1 12.5q-0.1-0.1-0.1-0.2 0 0 0.1 0 0 0.1 0 0.2zm5.8 2.7q0-0.1 0-0.1 0 0 0 0 0 0.1 0 0.1zm1.1-3.1q0 0 0 0 0 0 0 0zm17.5 0.4q0.1 0 0.1-0.1c0 0.1-0.1 0.1-0.1 0.1zm15.7 2.7c-0.8 0.6-1.4-0.1-2.1-0.2-0.1-0.1 0-0.3 0.1-0.5 0.5 0 1 0.1 1.7-0.1-0.7-0.5-1.2-0.5-1.8-0.4q-0.2-0.2-0.4-0.1 0 0-0.1 0.1c-0.2-0.3-0.3-0.5-0.1-0.8q0.1 0.1 0.2 0.1c0.8 0.4 1.6 0.4 2.4 0.7q0 0 0.1 0c-0.1 0.4 0 0.8 0 1.2zm7.6-1.1q0-0.1 0-0.1 0 0 0.1 0.1 0 0-0.1 0zm68.1-12.8c0.1 0 0.3 0.1 0.4 0.1-0.2 0.3-0.3 0.1-0.4-0.1zm6.2 0.6q0 0 0 0.1c0-0.2-0.3-0.2-0.4-0.4 0.2-0.1 0.3 0.1 0.4 0.3zm-0.2 2.3q-0.1-0.1-0.2 0c0.3-0.5 0.3-1.3 1.2-1.1-0.4 0.3-1.2 0.2-1 1.1zm2.5-2.8c-0.4-0.5-1-0.5-1.4-0.8 0.2 0.1 0.5 0.4 0.8 0.1q0 0 0 0c0.2 0.3 0.5 0.4 0.8 0.5q-0.1 0-0.2 0.2zm21.6-10.6v-0.1q0 0.1 0 0.1zm28.7-143.1c-0.1 0-0.2 0-0.2 0.1-0.5-0.1-0.8 0.3-1.2 0.4-0.2-0.1-0.3 0.1-0.5 0.2-0.2 0.1-0.4 0.2-0.6 0.2q-0.4 0-0.7 0c-1.1-0.1-2.1-0.2-3.2-0.3 0-0.1 0.1-0.2 0.2-0.3 0.4-0.2 0.8-0.4 1-0.8 0.2 0 0.4 0 0.6 0.1 0.5 0.2 2.2-0.2 2.4-0.7q0.1-0.4 0.2-0.6c0.9 0.3 1.7 0.6 2.6 0.6q0.6 0.3 1.3 0.5c-0.7 0.1-1.3 0.3-1.9 0.6zm-27.1-40.5v0.1q0 0-0.1 0 0.1 0 0.1-0.1zm-61.9-12.9q0 0 0.1 0.1-0.1 0-0.1 0 0-0.1 0-0.1zm-3.9-1.9q0 0.1 0 0.1 0 0 0 0c0 0 0 0 0-0.1zm-0.7 2.1c-0.1 0-0.1 0 0 0-0.1 0-0.1 0 0 0zm-22.5-2.1c0.5-0.4 0.9 0.1 1.4 0.2 0.1 0 0 0.2 0 0.3-0.4 0-0.7-0.1-1.2 0.1 0.4 0.3 0.8 0.3 1.2 0.2q0 0 0 0.1c0.1 0.1 0.2 0.1 0.3 0q0 0 0.1 0c0.1 0.2 0.1 0.3 0 0.5q0 0-0.1-0.1c-0.5-0.2-1.1-0.2-1.6-0.5q0 0-0.1 0c0.1-0.2 0-0.5 0-0.8zm-5.2 0.8q0.1 0 0.1 0-0.1 0-0.1 0 0 0 0 0zm-5.4-0.8q-0.2 0.1-0.4 0.1 0-0.1-0.1-0.2c0.2 0 0.4 0.1 0.5 0.1zm-5.7-0.6c-0.2 0.1-0.3 0.2-0.3 0.3-0.3 0-0.4-0.1-0.6-0.5q0.5 0.1 0.9 0.2zm-59.9-4.7q0.1 0.1 0.2 0.2-0.1 0-0.2 0 0-0.1 0-0.2zm-5.8-2.7q0 0 0.1 0.1h-0.1q0 0 0 0 0-0.1 0-0.1zm-1 3.1q-0.1 0 0 0-0.1 0 0 0zm-17.5-0.4q-0.1 0-0.2 0.1 0.1-0.2 0.2-0.1zm-15.7-2.7c0.7-0.6 1.3 0.1 2 0.2 0.2 0.1 0 0.4 0 0.5-0.5 0-1.1-0.1-1.7 0.1 0.6 0.5 1.1 0.6 1.7 0.4v0.1q0.2 0.1 0.4 0 0.1 0 0.1-0.1c0.2 0.3 0.3 0.6 0.1 0.8q-0.1-0.1-0.2-0.1c-0.7-0.4-1.6-0.4-2.3-0.7q-0.1 0-0.1 0c0.1-0.4 0-0.8 0-1.2zm-7.7 1.1q0.1 0.1 0.1 0.1-0.1 0-0.1-0.1 0 0 0 0zm-68.1 12.8c-0.1 0-0.2-0.1-0.3-0.1 0.2-0.3 0.3-0.1 0.3 0.1zm-6.1-0.6q-0.1 0-0.1-0.1c0.1 0.2 0.3 0.3 0.4 0.4-0.2 0.1-0.2-0.1-0.3-0.3zm0.1-2.2q0.1 0 0.2-0.1c-0.2 0.5-0.3 1.3-1.1 1.1 0.3-0.3 1.1-0.2 0.9-1zm-2.5 2.7c0.4 0.5 1.1 0.5 1.5 0.8-0.3-0.1-0.6-0.3-0.9-0.1q0 0 0 0c-0.2-0.3-0.5-0.4-0.7-0.5q0.1-0.1 0.1-0.2zm-87.5 2.1c0.2-0.2 0.5-0.1 0.8 0.1q-0.5 0-1 0.1 0.1-0.1 0.2-0.2zm-28.2 52.8q-0.1 0.1-0.1 0.1 0 0 0.1-0.1zm-23.5 22.7q0.2 0.4 0.1 0.7c-1.7-0.1-3.4-0.3-5.1-0.6-0.1-0.1-0.2-0.2-0.3-0.3-0.3-0.3-0.3-0.5 0.2-0.5 0.2 0 0.4 0 0.4-0.2 1.6 0.4 3.1 0.7 4.7 0.9zm-8-0.5c0.4-0.4 0.5 0.1 0.7 0.3q-0.5 0-0.9-0.1 0.1-0.1 0.2-0.2zm-49.6 9.9q0 0 0 0zm-7.4 0.5q-0.2 0-0.3-0.1c0.1-0.2 0.2 0 0.3 0.1zm-4.2-0.4q-0.1 0 0-0.1-0.1 0.1 0 0c0 0.2 0.2 0.2 0.2 0.3-0.1 0.1-0.2-0.1-0.2-0.2zm0.1-1.5q0.1 0 0.1 0c-0.1 0.3-0.2 0.8-0.8 0.7 0.3-0.2 0.8-0.2 0.7-0.7zm-13 87.4h0.1q0 0-0.1 0 0 0 0 0zm-0.3 11.5q0 0 0 0 0 0 0 0zm-3-89.9q0 0 0 0 0 0.1 0 0zm-15.6 3.7c0.2-0.2 0.6-0.1 0.8-0.5 0.2 0.3 0.7 0.1 0.9 0.3-0.5 0.1-1.1 0.2-1.7 0.2zm3-0.6q0.1 0 0.1 0c0.1 0.2 0.5 0.3 0.5 0.7-0.3-0.2-0.4-0.4-0.6-0.7zm7-2.2q0 0 0 0 0 0 0 0zm3.4-4.4q0 0.1 0 0.2 0 0 0-0.1-0.1 0-0.1 0 0.1 0 0.1-0.1zm-0.5 0.3q0-0.1 0-0.1c0.1 0 0.2 0 0.3 0-0.2 0-0.2 0.2-0.2 0.5 0 0.1 0.1 0.3 0.3 0.2 0.1 0 0.1 0.1 0 0.1-0.3-0.1-0.4-0.4-0.4-0.7zm-1.3 77q0 0 0 0 0 0 0 0 0 0 0 0zm-0.5 0.2q0 0.1 0 0.1 0 0 0 0 0-0.1 0-0.1zm-3.9 10.5q0 0 0 0 0 0 0 0 0 0 0 0zm-2.6 0.5q0 0 0 0.1 0 0 0 0 0-0.1 0-0.1zm-2.2-8.8q0 0 0 0 0 0 0 0c0 0 0 0 0 0zm-2.9 12.5q0.1 0.1 0.1 0.1 0 0-0.1 0 0 0 0-0.1zm-5.4-2.9q0 0 0 0 0 0 0 0 0 0 0 0zm-2.5-8.2q0 0 0 0 0 0 0 0zm-1 3.6q0 0.1 0 0 0 0.1 0 0z"/></g></svg>