<svg width="28" height="28" viewBox="0 0 28 28" fill="none" xmlns="http://www.w3.org/2000/svg">
<path d="M4.66667 13.2222L0 10.5L14 2.33331L28 10.5V20.4166H25.6667V11.8611L23.3333 13.2222V21.0132L23.0736 21.3341C20.9366 23.9749 17.6654 25.6666 14 25.6666C10.3345 25.6666 7.06334 23.9749 4.9264 21.3341L4.66667 21.0132V13.2222ZM7 14.5833V20.1736C8.71174 22.113 11.213 23.3333 14 23.3333C16.7871 23.3333 19.2883 22.113 21 20.1736V14.5833L14 18.6666L7 14.5833ZM4.63082 10.5L14 15.9653L23.3692 10.5L14 5.03463L4.63082 10.5Z" fill="#DF4343"/>
</svg>
