<svg version="1.2" xmlns="http://www.w3.org/2000/svg" viewBox="0 0 234 66" width="234" height="66"><style>.a{fill:#b0191e}</style><path class="a" d="m116.1 0.5c0.6-0.3 1.2-0.3 1.8 0l12.2 6.4c0.4 0.2 0.9 0.2 1.4 0.1l18.6-5.2c0.8-0.2 1.7 0.1 2.2 0.8l4.1 5.9c0.4 0.6 1.2 0.9 1.9 0.8l21.3-3.1c1.5-0.2 2.7 1.3 2.1 2.7l-0.8 2.1c-0.5 1.4 0.6 2.8 2 2.7l18.2-0.9c2.1-0.1 2.9 2.6 1.2 3.7-1.6 1.1-0.9 3.6 1 3.7l11.6 0.4c2.2 0 2.6 3.1 0.5 3.8-2 0.7-1.7 3.6 0.4 3.9l4.9 0.6c2.3 0.3 2.3 3.5 0.1 4l-2.4 0.4c-2.1 0.4-2.2 3.4-0.1 3.9l0.7 0.2c2.2 0.5 1.9 3.7-0.3 3.9l-8.1 0.6c-2 0.2-2.5 2.9-0.7 3.8 2 0.9 1.3 3.7-0.8 3.7l-15.2-0.1c-1.8 0-2.7 2.1-1.5 3.3l0.6 0.7c1.3 1.4 0.2 3.6-1.6 3.4l-20.5-2c-1-0.1-2 0.7-2.1 1.7l-0.7 4.3c-0.2 1.1-1.3 1.8-2.4 1.6l-20.5-4.2c-0.6-0.1-1.2 0-1.7 0.4l-8.2 6.4c-0.5 0.5-1.3 0.6-1.9 0.3l-15.7-5.9c-0.4-0.1-0.9-0.1-1.4 0l-15.7 5.9c-0.6 0.3-1.4 0.2-1.9-0.3l-8.2-6.4c-0.5-0.4-1.1-0.5-1.7-0.4l-20.5 4.2c-1.1 0.2-2.2-0.5-2.4-1.6l-0.7-4.3c-0.1-1-1.1-1.8-2.1-1.7l-20.5 2c-1.8 0.2-2.9-2-1.6-3.4l0.6-0.7c1.2-1.2 0.3-3.3-1.5-3.3l-15.2 0.1c-2.1 0-2.8-2.8-0.8-3.7 1.8-0.9 1.3-3.6-0.7-3.8l-8.1-0.6c-2.2-0.2-2.5-3.4-0.3-3.9l0.7-0.2c2.1-0.5 2-3.5-0.1-3.9l-2.4-0.4c-2.2-0.5-2.2-3.7 0.1-4l4.9-0.6c2.1-0.3 2.4-3.2 0.4-3.9-2.1-0.7-1.7-3.8 0.5-3.8l11.6-0.4c1.9-0.1 2.6-2.6 1-3.7-1.7-1.1-0.9-3.8 1.2-3.7l18.2 0.9c1.4 0.1 2.5-1.3 2-2.7l-0.8-2.1c-0.6-1.4 0.6-2.9 2.1-2.7l21.3 3.1c0.7 0.1 1.5-0.2 1.9-0.8l4.1-5.9c0.5-0.7 1.4-1 2.2-0.8l18.6 5.2c0.5 0.1 1 0.1 1.4-0.1z"/></svg>